<?xml version="1.0" encoding="UTF-8"?>
<svg version="1.1" xmlns="http://www.w3.org/2000/svg" width="500" height="500">
<path d="M0 0 C165 0 330 0 500 0 C500 165 500 330 500 500 C335 500 170 500 0 500 C0 335 0 170 0 0 Z " fill="#FEFEFF" transform="translate(0,0)"/>
<path d="M0 0 C3.79647731 1.04902662 5.62686644 2.15628656 8.5625 4.734375 C9.97789062 5.95640625 9.97789062 5.95640625 11.421875 7.203125 C11.92654297 7.65042969 12.43121094 8.09773438 12.95117188 8.55859375 C14.64743004 10.05952522 16.36055097 11.53914678 18.078125 13.015625 C21.26860546 15.76219785 24.44546004 18.524012 27.61865234 21.29052734 C30.78292706 24.04784184 33.95364606 26.79770858 37.125 29.546875 C37.74600586 30.08538086 38.36701172 30.62388672 39.00683594 31.17871094 C43.75390697 35.29184864 48.52048432 39.38177589 53.29321289 43.46508789 C57.56408855 47.12163897 61.81660226 50.79886345 66.0625 54.484375 C71.07163864 58.83141236 76.09047303 63.16675605 81.125 67.484375 C81.68445313 67.96455078 82.24390625 68.44472656 82.8203125 68.93945312 C83.62275391 69.6268457 83.62275391 69.6268457 84.44140625 70.328125 C84.95719238 70.77027344 85.47297852 71.21242188 86.00439453 71.66796875 C87.06883964 72.5672931 88.14329107 73.45487202 89.22607422 74.33203125 C91.82105063 76.43627838 93.69169907 78.1781736 95.5625 80.984375 C95.6069281 86.18246278 93.47397285 88.6750469 90.0546875 92.23583984 C89.43851562 92.85410645 88.82234375 93.47237305 88.1875 94.109375 C86.90851517 95.43717355 85.62987355 96.76530277 84.3515625 98.09375 C83.3929834 99.07698242 83.3929834 99.07698242 82.41503906 100.08007812 C78.0095916 104.60860873 73.72528104 109.23088213 69.5625 113.984375 C68.94503906 114.68046875 68.32757813 115.3765625 67.69140625 116.09375 C63.42974381 121.57758496 62.35831291 127.45247415 61.02294922 134.11425781 C58.64858389 145.89598034 53.91757779 155.81991341 47.5625 165.984375 C48.31015625 166.57605469 49.0578125 167.16773438 49.828125 167.77734375 C50.81296875 168.56753906 51.7978125 169.35773438 52.8125 170.171875 C53.78703125 170.94917969 54.7615625 171.72648438 55.765625 172.52734375 C60.19692446 176.42020319 64.05405686 180.52696165 64.93359375 186.5078125 C65.18523562 197.31361031 62.45507351 207.06241326 55.5 215.484375 C50.15119834 220.93173079 43.32469958 224.8780054 35.85546875 226.61328125 C33.14492165 227.90743739 33.14492165 227.90743739 32.19140625 231.73046875 C31.82010884 233.29058837 31.46550147 234.85474586 31.125 236.421875 C29.25413483 243.98400643 26.94780765 250.45740548 22.5625 256.984375 C21.92248047 257.9434375 21.92248047 257.9434375 21.26953125 258.921875 C18.16735652 262.99745939 14.85950453 264.9147534 10.375 267.359375 C6.49907871 269.79853236 4.37303069 271.52149681 3.296875 275.95703125 C2.77917247 278.9287097 2.45013714 281.91295017 2.1171875 284.91015625 C1.53023051 290.07372771 -0.36848897 293.8280572 -3.4375 297.984375 C-4.08332031 298.93183594 -4.08332031 298.93183594 -4.7421875 299.8984375 C-8.59617023 305.01530722 -13.44615152 307.83769508 -19.4375 309.984375 C-21.20514393 310.19987876 -22.97634457 310.3882769 -24.75 310.546875 C-27.27682679 310.83982213 -27.27682679 310.83982213 -29.4375 311.984375 C-31.08994787 314.81260308 -32.05485838 317.64490795 -33.11328125 320.7421875 C-37.1500299 330.6256724 -46.77567896 337.64452741 -56.3125 341.859375 C-65.31618853 344.84274005 -73.13628351 342.99551388 -81.4375 338.984375 C-84.34869006 337.24050083 -87.04515144 335.28070096 -89.75 333.234375 C-90.50418213 332.6772583 -91.25836426 332.1201416 -92.03540039 331.54614258 C-94.51413729 329.70686773 -96.97763593 327.84880699 -99.4375 325.984375 C-100.32598633 325.31132324 -101.21447266 324.63827148 -102.12988281 323.94482422 C-108.89568332 318.80987204 -115.65930677 313.67078643 -122.38427734 308.48242188 C-123.93662008 307.2863473 -125.49897612 306.10329595 -127.0625 304.921875 C-127.85914063 304.31214844 -128.65578125 303.70242188 -129.4765625 303.07421875 C-130.12367188 302.71457031 -130.77078125 302.35492188 -131.4375 301.984375 C-134.83290434 303.11617645 -135.59107852 304.08794699 -137.8125 306.796875 C-142.33186228 312.10427735 -146.54040375 316.34893864 -153.6953125 317.27734375 C-159.29974016 317.59441382 -163.13838587 316.81266277 -167.74609375 313.5546875 C-170.48432945 311.01249177 -171.84659993 308.35708316 -173.4375 304.984375 C-173.7675 304.324375 -174.0975 303.664375 -174.4375 302.984375 C-175.02704394 298.09958237 -175.00553814 295.19264541 -172.0625 291.171875 C-168.53376551 286.9207878 -164.74385798 282.88563611 -161 278.82421875 C-158.62023407 276.18688669 -156.35768584 273.49650289 -154.125 270.734375 C-150.38178113 266.11039875 -146.5633696 261.55971683 -142.6875 257.046875 C-142.14440186 256.40782227 -141.60130371 255.76876953 -141.04174805 255.11035156 C-132.61386137 245.34452006 -132.61386137 245.34452006 -127.3359375 244.74609375 C-120.29369062 244.53896884 -115.1570286 245.5794334 -109.8671875 250.421875 C-106.38902309 254.55592184 -105.41306624 258.895502 -105.1953125 264.23046875 C-106.05336495 273.98735553 -114.98575303 281.3066474 -121.4375 287.984375 C-119.8728356 292.33066499 -116.51682765 294.67422592 -113 297.421875 C-112.34330322 297.94120605 -111.68660645 298.46053711 -111.01000977 298.99560547 C-104.23917174 304.27189043 -97.16445353 309.07916252 -90.03125 313.84765625 C-87.0978853 315.81927202 -84.25589375 317.85413639 -81.46875 320.02734375 C-73.54911122 326.41154941 -73.54911122 326.41154941 -63.74609375 327.640625 C-56.19217592 325.49331841 -50.93398914 321.35975425 -46.4375 314.984375 C-44.85433386 311.81804271 -45.04695144 309.47720551 -45.4375 305.984375 C-47.30908569 303.83298415 -48.82708709 302.40711781 -51.0625 300.734375 C-51.6493457 300.26749268 -52.23619141 299.80061035 -52.84082031 299.31958008 C-54.69134378 297.85405001 -56.56272508 296.41869075 -58.4375 294.984375 C-59.5667135 294.0997066 -60.69436388 293.21303876 -61.8203125 292.32421875 C-63.51361138 290.98890909 -65.20827148 289.65568668 -66.90917969 288.33007812 C-71.77112259 284.5381381 -76.55212958 280.65287089 -81.3125 276.734375 C-82.00182617 276.16807373 -82.69115234 275.60177246 -83.40136719 275.01831055 C-85.42187188 273.3502025 -87.43068092 271.66891172 -89.4375 269.984375 C-90.17742187 269.37424561 -90.91734375 268.76411621 -91.6796875 268.13549805 C-92.4015625 267.52746338 -93.1234375 266.91942871 -93.8671875 266.29296875 C-94.52187012 265.74697021 -95.17655273 265.20097168 -95.85107422 264.63842773 C-97.4375 262.984375 -97.4375 262.984375 -98.6875 259.296875 C-98.4375 255.984375 -98.4375 255.984375 -96.875 253.484375 C-94.4375 251.984375 -94.4375 251.984375 -91.8125 251.859375 C-82.0153512 255.12509127 -74.60286061 262.03133825 -66.95117188 268.68408203 C-64.13916605 271.09968574 -61.21950407 273.37756144 -58.30859375 275.671875 C-55.93905652 277.58040022 -53.60803387 279.51994367 -51.28515625 281.484375 C-50.53911133 282.11110107 -49.79306641 282.73782715 -49.02441406 283.38354492 C-47.54017676 284.63214601 -46.06137585 285.88724652 -44.58886719 287.1496582 C-39.35386324 291.53710747 -34.8373687 294.62649408 -27.875 295.359375 C-22.79289816 294.80496389 -19.70547701 293.32279517 -16.1875 289.609375 C-11.83127574 283.07503861 -11.55118893 276.66898414 -12.4375 268.984375 C-14.08798277 265.91919271 -14.81910124 265.00743257 -17.4375 262.984375 C-18.26636719 262.33597656 -19.09523438 261.68757813 -19.94921875 261.01953125 C-22.52916227 259.05960086 -25.13574155 257.14149378 -27.75195312 255.23046875 C-36.23845415 248.9565549 -44.40496105 242.23820389 -52.5625 235.546875 C-53.28526123 234.95559814 -54.00802246 234.36432129 -54.75268555 233.75512695 C-64.24246804 225.93269555 -64.24246804 225.93269555 -64.86328125 222.9140625 C-64.54861111 217.20659722 -64.54861111 217.20659722 -63.4375 214.984375 C-59.89363043 214.19240415 -56.98816046 214.18010699 -53.4375 214.984375 C-49.30483929 217.76404998 -45.77874231 221.05752436 -42.140625 224.4453125 C-39.44190573 226.8840634 -36.57141016 229.08335468 -33.6875 231.296875 C-27.4461702 236.13647514 -21.3521729 241.14282276 -15.29785156 246.21411133 C-8.35593363 252.23615037 -8.35593363 252.23615037 -0.0625 255.796875 C5.65979532 254.51429157 8.30313116 250.67503189 11.5625 245.984375 C15.07683388 239.62221884 17.3350701 233.32379099 16.5625 225.984375 C14.33529239 223.45947349 14.33529239 223.45947349 11.5625 220.984375 C10.73492187 220.20578125 9.90734375 219.4271875 9.0546875 218.625 C3.67360982 213.70974696 -1.81180006 208.99112962 -7.47265625 204.40234375 C-28.35622255 187.37081867 -28.35622255 187.37081867 -31.4375 181.984375 C-31.69921875 179.375 -31.69921875 179.375 -31.4375 176.984375 C-29.18821112 174.3751999 -27.58290237 174.00954079 -24.1875 173.421875 C-18.92773101 174.21084035 -16.39785936 176.55971642 -12.4375 179.984375 C-11.34835929 180.90317778 -10.2584551 181.82107596 -9.16796875 182.73828125 C-3.78123547 187.29429474 1.5294738 191.92594209 6.75 196.671875 C17.24932686 207.49474896 17.24932686 207.49474896 30.3125 213.046875 C37.60012197 210.6643832 43.09896103 206.12174108 47.5625 199.984375 C49.43890956 196.23155588 49.07494659 192.07159962 48.5625 187.984375 C45.54231631 182.04815189 40.89702993 178.65131247 35.72265625 174.5703125 C32.1667605 171.7206556 28.87321915 168.61206913 25.5625 165.484375 C20.65028616 160.85732215 15.6111961 156.51159875 10.33984375 152.29296875 C7.13807201 149.63158042 4.10015082 146.82975254 1.0625 143.984375 C-2.83326281 140.33549051 -6.77084284 136.82739062 -10.9375 133.484375 C-15.1041621 130.14135541 -19.04169812 126.63322363 -22.9375 122.984375 C-27.68693694 118.53635671 -32.57632514 114.36437912 -37.65625 110.29296875 C-41.41636289 107.17186381 -44.99232003 103.86848604 -48.55493164 100.52514648 C-53.70414603 95.71603185 -56.61348484 95.76372194 -63.54589844 95.82373047 C-70.6100697 96.11533804 -77.56846715 97.04630384 -84.5625 98.046875 C-85.33274506 98.15397797 -86.10299011 98.26108093 -86.89657593 98.37142944 C-96.93900891 99.7906884 -106.06500327 101.7657045 -115.453125 105.72631836 C-124.17896832 109.33184497 -133.49057007 109.54549174 -142.34375 106.02734375 C-148.5633491 102.92914793 -154.54249806 99.56392487 -157.4375 92.984375 C-157.91469563 88.21241873 -157.47167472 86.28070578 -154.48046875 82.53125 C-149.65592057 77.57754068 -144.40796633 73.15579185 -138.94140625 68.9296875 C-137.23502211 67.60397876 -135.55585868 66.24265519 -133.90234375 64.8515625 C-133.06832031 64.15289062 -132.23429688 63.45421875 -131.375 62.734375 C-130.64152344 62.11046875 -129.90804687 61.4865625 -129.15234375 60.84375 C-120.96685609 55.23757428 -112.32026515 53.85464108 -102.67163086 52.54638672 C-100.37447473 52.23430364 -98.0809311 51.90203968 -95.78710938 51.56640625 C-94.30485544 51.35558666 -92.8224381 51.14591212 -91.33984375 50.9375 C-90.66565903 50.84067932 -89.9914743 50.74385864 -89.29685974 50.644104 C-84.627693 50.01877981 -80.13520115 49.9045589 -75.4375 49.984375 C-75.4375 49.324375 -75.4375 48.664375 -75.4375 47.984375 C-86.03307992 47.07206035 -96.55788347 46.74245336 -107.1875 46.734375 C-107.99663849 46.73370026 -108.80577698 46.73302551 -109.63943481 46.73233032 C-122.93323554 46.74979318 -135.93546569 47.48212203 -149.09619141 49.47949219 C-152.17959774 49.94540511 -155.26647769 50.37606972 -158.35603333 50.79893494 C-161.09368054 51.1799904 -163.82729011 51.5855217 -166.56033325 51.99819946 C-168.50255327 52.28793238 -170.44743232 52.55966247 -172.39233398 52.83081055 C-179.67077949 53.99711153 -185.44348093 55.30145013 -190.4375 60.984375 C-192.78617498 64.39618401 -194.64934899 67.97087414 -196.5 71.671875 C-197.62580221 73.83427243 -198.75347858 75.99569494 -199.8828125 78.15625 C-200.75341309 79.83944336 -200.75341309 79.83944336 -201.64160156 81.55664062 C-204.61686767 87.23537038 -207.74710998 92.82619767 -210.875 98.421875 C-211.49624756 99.53763916 -212.11749512 100.65340332 -212.75756836 101.80297852 C-218.29172705 111.74069213 -223.8501605 121.66485315 -229.4140625 131.5859375 C-230.17638184 132.95395508 -230.17638184 132.95395508 -230.95410156 134.34960938 C-231.9338285 136.08976954 -232.93035077 137.82059232 -233.94433594 139.54101562 C-234.63317871 140.7234082 -234.63317871 140.7234082 -235.3359375 141.9296875 C-235.74247559 142.61305176 -236.14901367 143.29641602 -236.56787109 144.00048828 C-238.21082959 147.74857384 -237.34754966 151.12409898 -236.4375 154.984375 C-236.18871094 156.07878906 -235.93992187 157.17320312 -235.68359375 158.30078125 C-235.16096037 160.56047631 -234.62048526 162.81615174 -234.05859375 165.06640625 C-233.4375 167.984375 -233.4375 167.984375 -233.4375 171.984375 C-232.68984375 171.49066406 -231.9421875 170.99695313 -231.171875 170.48828125 C-230.18703125 169.84761719 -229.2021875 169.20695313 -228.1875 168.546875 C-226.72570312 167.58974609 -226.72570312 167.58974609 -225.234375 166.61328125 C-219.90797365 163.5111732 -214.4998584 163.3289849 -208.4375 163.984375 C-202.04832297 165.99053298 -198.30716517 169.43201118 -195.1875 175.359375 C-193.81062224 180.17844716 -193.86959923 183.67573409 -195.875 188.296875 C-199.10385758 193.35802547 -203.34444966 197.62398895 -207.4375 201.984375 C-208.50698292 203.13367508 -209.57596655 204.28343991 -210.64453125 205.43359375 C-213.00034299 207.96677873 -215.36336915 210.49298769 -217.73046875 213.015625 C-220.25239706 215.7067519 -222.75226763 218.41629653 -225.23828125 221.140625 C-226.16797729 222.15346558 -226.16797729 222.15346558 -227.11645508 223.18676758 C-228.29704937 224.47372457 -229.4729769 225.76498445 -230.64331055 227.0612793 C-234.7185581 231.4864065 -238.48618698 235.49726508 -244.65625 236.515625 C-255.77927215 236.40969146 -255.77927215 236.40969146 -260.4375 231.984375 C-265.0707385 227.12264803 -266.90844838 223.18472462 -266.7578125 216.4921875 C-265.5418603 206.97217148 -258.31751689 200.01695276 -252.1796875 193.18359375 C-247.99976133 188.55265448 -247.99976133 188.55265448 -246.2578125 182.73046875 C-246.60002607 180.13754287 -246.99942738 177.56294881 -247.4375 174.984375 C-247.54449219 173.94796875 -247.65148437 172.9115625 -247.76171875 171.84375 C-248.27231734 168.52690156 -248.88847572 165.96635835 -250.4375 162.984375 C-253.08593651 161.19679796 -255.62526649 160.36095318 -258.6640625 159.375 C-263.39471413 157.783618 -267.53967224 155.21385624 -271.8125 152.671875 C-272.62549561 152.19218262 -273.43849121 151.71249023 -274.27612305 151.21826172 C-275.89495953 150.26224193 -277.51273516 149.30442332 -279.12939453 148.34472656 C-283.53650433 145.7472635 -288.00130585 143.25107158 -292.45703125 140.73828125 C-293.44058594 140.15949219 -294.42414063 139.58070313 -295.4375 138.984375 C-296.55511719 138.41589844 -297.67273438 137.84742188 -298.82421875 137.26171875 C-301.4375 134.984375 -301.4375 134.984375 -302.171875 131.5546875 C-301.66140561 125.19729003 -298.42627926 119.50779456 -295.6875 113.859375 C-295.09411745 112.61174174 -294.50126946 111.36385411 -293.90893555 110.11572266 C-288.92584616 99.69380886 -283.50532804 89.52737882 -277.83105469 79.46582031 C-276.48692066 77.07237633 -275.16524446 74.66808064 -273.8515625 72.2578125 C-249.12828892 26.99393782 -249.12828892 26.99393782 -234.4375 12.984375 C-233.86 12.38496094 -233.2825 11.78554687 -232.6875 11.16796875 C-229.19605022 9.33132069 -226.07344971 9.8763581 -222.4375 10.984375 C-219.93057068 12.33223124 -217.84642181 14.01420979 -215.6875 15.859375 C-215.09114746 16.34752686 -214.49479492 16.83567871 -213.88037109 17.33862305 C-209.29969721 21.13155707 -204.92639759 25.14440922 -200.56445312 29.18432617 C-196.44354333 33.0048395 -196.44354333 33.0048395 -192.1875 36.671875 C-191.64609375 37.12949219 -191.1046875 37.58710937 -190.546875 38.05859375 C-183.52036883 41.14244923 -174.22534743 38.00618674 -167.0625 36.671875 C-129.98167921 30.10008864 -84.82527673 22.95564074 -50.64453125 43.18359375 C-47.55326795 45.19377798 -47.55326795 45.19377798 -44.0625 45.359375 C-38.25520192 43.15660676 -35.24244573 38.75885017 -31.4375 33.984375 C-30.81101562 33.19957764 -30.81101562 33.19957764 -30.171875 32.39892578 C-27.90141169 29.54631431 -25.65441904 26.6762026 -23.41796875 23.796875 C-20.15973321 19.61226761 -16.83799667 15.48050979 -13.5 11.359375 C-12.95633789 10.68438965 -12.41267578 10.0094043 -11.85253906 9.31396484 C-10.83906695 8.0652788 -9.81604019 6.8242612 -8.78173828 5.59277344 C-7.65329937 4.24258173 -6.56907976 2.85560342 -5.49609375 1.4609375 C-3.4375 -0.015625 -3.4375 -0.015625 0 0 Z " fill="#635AFF" transform="translate(353.4375,79.015625)"/>
<path d="M0 0 C4.48104782 0.84572899 6.71214461 3.41338739 9.75 6.625 C10.81312876 7.7206702 11.87823511 8.81442501 12.9453125 9.90625 C13.46383789 10.43734375 13.98236328 10.9684375 14.51660156 11.515625 C17.04940967 14.05010053 19.74556758 16.37915225 22.4765625 18.6953125 C23.69958301 19.74271981 24.86139532 20.86139532 26 22 C25.64865464 25.73011656 24.38291578 28.46732237 22.515625 31.67578125 C21.9992749 32.57369385 21.4829248 33.47160645 20.95092773 34.39672852 C20.38962158 35.35893311 19.82831543 36.3211377 19.25 37.3125 C18.05674936 39.38956651 16.86539983 41.46772614 15.67578125 43.546875 C14.75853271 45.14885742 14.75853271 45.14885742 13.82275391 46.78320312 C10.95804143 51.83884893 8.19323701 56.94685231 5.4375 62.0625 C4.90181396 63.05564209 4.36612793 64.04878418 3.81420898 65.07202148 C2.73939203 67.06523881 1.66492617 69.05864549 0.59082031 71.05224609 C-5.72678674 82.75862846 -12.10994742 94.42996499 -18.5625 106.0625 C-18.96815186 106.79452637 -19.37380371 107.52655273 -19.79174805 108.28076172 C-21.80079254 111.89269009 -23.84686948 115.47106723 -26 119 C-29.93857291 118.31962421 -33.11126291 116.38586578 -36.515625 114.40234375 C-37.13145447 114.04862198 -37.74728394 113.69490021 -38.3817749 113.33045959 C-40.34050543 112.20401079 -42.2952676 111.07086981 -44.25 109.9375 C-45.58047268 109.1707787 -46.91119912 108.40449758 -48.2421875 107.63867188 C-51.49775411 105.76420217 -54.74977922 103.88372262 -58 102 C-56.00656499 95.680782 -53.15627585 89.97148913 -50.1875 84.0625 C-49.61290039 82.91604004 -49.03830078 81.76958008 -48.44628906 80.58837891 C-43.10615313 70.03456099 -37.34416112 59.74591579 -31.43115234 49.50390625 C-30.15208662 47.26608672 -28.90449866 45.01573541 -27.67578125 42.75 C-19.55037934 27.80460078 -9.78361339 13.89562053 0 0 Z " fill="#FDFDFF" transform="translate(126,105)"/>
<path d="M0 0 C4.8691494 0.4542117 7.84859204 2.86940191 11.5 5.875 C12.10948486 6.36532715 12.71896973 6.8556543 13.34692383 7.36083984 C18.61037657 11.61807424 23.77771811 15.9905127 28.921875 20.390625 C31.71666189 22.77472092 34.57051045 25.07805515 37.4375 27.375 C43.12348386 31.9969401 48.43684659 36.98155109 53.77734375 41.9921875 C56.81317929 44.83779021 59.9143393 47.59568978 63.0625 50.31640625 C65.47961284 52.41676035 67.86606141 54.54957833 70.25 56.6875 C71.05953125 57.41324219 71.8690625 58.13898438 72.703125 58.88671875 C74.86097864 60.87209089 76.94342272 62.91040428 79 65 C78.31035156 65.75023437 77.62070312 66.50046875 76.91015625 67.2734375 C75.96089422 68.30725193 75.01167891 69.34110926 74.0625 70.375 C73.31794556 71.18505493 73.31794556 71.18505493 72.55834961 72.01147461 C68.64498166 76.27645131 64.79294352 80.59270541 60.97265625 84.94140625 C59.10343515 86.89205877 57.2088867 88.45328515 55 90 C54.11699219 89.23816406 53.23398437 88.47632813 52.32421875 87.69140625 C45.9550334 82.20710281 39.55738083 76.77105923 33.03515625 71.46875 C23.46144833 63.68164137 13.94210916 55.83065955 4.53833008 47.83911133 C-3.84008264 40.72755578 -12.40275965 33.84422388 -21 27 C-19.2787229 22.77504711 -16.28984893 19.68907196 -13.3125 16.3125 C-8.69258139 11.00583673 -4.22821032 5.62768838 0 0 Z " fill="#FDFDFF" transform="translate(352,98)"/>
<path d="M0 0 C4.72997126 2.10220945 7.93487389 4.85716962 10.69921875 9.296875 C12.13277779 13.84210042 12.25196238 17.83698747 10.32421875 22.234375 C7.84746044 26.54104065 4.50495544 30.04786345 1.125 33.66015625 C-1.29832351 36.29420355 -3.55611842 39.00971923 -5.80078125 41.796875 C-8.70891505 45.3916515 -11.68619457 48.87948128 -14.80078125 52.296875 C-17.97257974 55.77865729 -21.01384616 59.33234666 -23.98828125 62.984375 C-24.73464844 63.89832031 -25.48101562 64.81226563 -26.25 65.75390625 C-27.47935072 67.27830115 -28.69518076 68.81397658 -29.8828125 70.37109375 C-34.10228169 75.72970339 -39.03440957 79.42375708 -45.8203125 80.8125 C-51.60196628 81.2032723 -55.23992462 79.8447933 -59.60546875 76.0625 C-63.40683752 72.10347078 -65.50024206 68.40507841 -65.73828125 62.796875 C-65.22837238 53.63396721 -60.0144916 48.03352382 -54.30078125 41.296875 C-53.86056641 40.77174316 -53.42035156 40.24661133 -52.96679688 39.70556641 C-46.78223108 32.32850937 -40.4122065 25.15394962 -33.81469727 18.14355469 C-30.9549599 15.10229483 -28.20525782 12.02148165 -25.55078125 8.796875 C-18.4295306 0.69819779 -10.79207441 -3.29808726 0 0 Z " fill="#635AFF" transform="translate(207.30078125,299.703125)"/>
<path d="M0 0 C3.52190956 2.57370314 5.84773481 4.8021006 7.625 8.875 C8.5999901 16.2585188 8.23650987 20.85860674 3.625 26.875 C2.05668595 28.69813224 0.45127354 30.48993141 -1.1875 32.25 C-2.07308594 33.21035156 -2.95867187 34.17070312 -3.87109375 35.16015625 C-4.69738281 36.05605469 -5.52367187 36.95195312 -6.375 37.875 C-9.66680377 41.55576965 -12.88619245 45.29774035 -16.0859375 49.05859375 C-40.17361017 77.34517946 -40.17361017 77.34517946 -45.375 78.875 C-51.47535633 78.64906088 -55.48115424 76.78483386 -59.7890625 72.453125 C-63.34321747 68.42092579 -65.01789839 65.06224738 -65.875 59.8125 C-63.72978787 42.91895446 -47.36849204 28.52740075 -36.18359375 16.8828125 C-33.86567365 14.46585556 -31.59922319 12.02641536 -29.41015625 9.4921875 C-21.59107844 0.45627324 -12.03645177 -6.91312936 0 0 Z " fill="#635AFF" transform="translate(179.375,273.125)"/>
</svg>
