<?xml version="1.0" encoding="UTF-8"?>
<svg version="1.1" xmlns="http://www.w3.org/2000/svg" width="500" height="500">
<path d="M0 0 C4.96329899 1.37246007 8.5020718 5.25096873 12.24609375 8.62109375 C13.42735279 9.64852378 14.61109173 10.67310732 15.796875 11.6953125 C18.35982825 13.90477774 20.9130066 16.12479936 23.4609375 18.3515625 C25.90284684 20.47564198 28.36896889 22.5613545 30.875 24.609375 C31.43461426 25.06715332 31.99422852 25.52493164 32.57080078 25.99658203 C34.09257759 27.23455184 35.62032498 28.46517185 37.1484375 29.6953125 C37.84066406 30.33082031 38.53289062 30.96632813 39.24609375 31.62109375 C39.24609375 32.28109375 39.24609375 32.94109375 39.24609375 33.62109375 C39.7875 33.85828125 40.32890625 34.09546875 40.88671875 34.33984375 C43.87859512 35.96457132 46.35768774 37.97128145 48.99609375 40.12109375 C49.9809375 40.91515625 50.96578125 41.70921875 51.98046875 42.52734375 C52.728125 43.21828125 53.47578125 43.90921875 54.24609375 44.62109375 C54.24609375 45.28109375 54.24609375 45.94109375 54.24609375 46.62109375 C54.80167969 46.86859375 55.35726563 47.11609375 55.9296875 47.37109375 C64.13792345 51.80049595 71.1294445 59.23513608 77.93359375 65.5546875 C80.26412066 67.73479012 80.26412066 67.73479012 83.24609375 69.62109375 C83.24609375 70.28109375 83.24609375 70.94109375 83.24609375 71.62109375 C83.83003906 71.89308594 84.41398437 72.16507812 85.015625 72.4453125 C87.21805806 73.60631487 89.01305319 74.85466778 90.93359375 76.43359375 C91.53558594 76.91441406 92.13757813 77.39523438 92.7578125 77.890625 C94.70263856 80.15193194 95.08370443 81.65297793 95.24609375 84.62109375 C92.63351991 90.70981187 87.63365059 95.51282587 82.8828125 99.9921875 C81.15405497 101.53975761 81.15405497 101.53975761 80.24609375 103.62109375 C79.58609375 103.62109375 78.92609375 103.62109375 78.24609375 103.62109375 C78.00503906 104.19601563 77.76398438 104.7709375 77.515625 105.36328125 C76.00662846 108.04697355 74.20726746 109.67494896 71.93359375 111.74609375 C65.12799341 118.4201849 61.89817847 125.16586531 61.24609375 134.62109375 C60.45121466 138.62228286 58.96457623 142.42679786 57.55859375 146.24609375 C57.29747803 146.95741455 57.0363623 147.66873535 56.76733398 148.40161133 C54.819311 153.52832417 52.43202749 158.01788399 49.25 162.5078125 C47.93032113 165.28581354 48.24739258 166.75652651 49.24609375 169.62109375 C51.54143633 170.75654937 51.54143633 170.75654937 54.24609375 171.62109375 C59.683125 174.8833125 62.18658377 179.788629 64.24609375 185.62109375 C66.07581797 195.38488073 62.31974546 205.92216145 57.05859375 214.05859375 C51.58892609 221.23898726 44.67901582 224.77648306 36.3125 227.76171875 C34.07457812 228.5383624 34.07457812 228.5383624 32.24609375 230.62109375 C31.81699127 232.48445659 31.45286115 234.36296327 31.12109375 236.24609375 C28.1127532 249.92036899 21.76557529 261.79851937 9.93359375 269.55859375 C6.55799086 271.62109375 6.55799086 271.62109375 4.24609375 271.62109375 C4.11654297 272.80251953 4.11654297 272.80251953 3.984375 274.0078125 C2.76774874 283.4394564 0.82597559 294.30426515 -5.75390625 301.62109375 C-6.41390625 301.62109375 -7.07390625 301.62109375 -7.75390625 301.62109375 C-7.75390625 302.28109375 -7.75390625 302.94109375 -7.75390625 303.62109375 C-8.41390625 303.62109375 -9.07390625 303.62109375 -9.75390625 303.62109375 C-10.08390625 304.61109375 -10.41390625 305.60109375 -10.75390625 306.62109375 C-14.77704329 309.57279482 -19.19936994 310.80213356 -24.06640625 311.55859375 C-27.80423918 312.15985923 -27.80423918 312.15985923 -30.56640625 314.62109375 C-30.95828125 315.61109375 -31.35015625 316.60109375 -31.75390625 317.62109375 C-37.55725739 330.20924511 -44.26409267 337.91198064 -57.3984375 342.83984375 C-65.56546395 345.54864191 -72.32350509 345.0199887 -80.10546875 341.609375 C-87.38306877 337.88533818 -93.76702641 332.49408574 -100.23095703 327.54248047 C-104.36741831 324.39230142 -108.56231523 321.3222953 -112.75390625 318.24609375 C-114.32301832 317.08998171 -115.8920323 315.93373651 -117.4609375 314.77734375 C-122.54309664 311.03719751 -127.64178423 307.32020227 -132.75390625 303.62109375 C-133.74390625 304.46671875 -134.73390625 305.31234375 -135.75390625 306.18359375 C-136.39199219 306.72628906 -137.03007812 307.26898438 -137.6875 307.828125 C-139.07482082 309.0318684 -140.44209027 310.25908393 -141.7890625 311.5078125 C-147.39194528 316.6572828 -151.84057353 319.18554929 -159.7421875 318.9296875 C-165.8416329 317.99404442 -169.86778306 313.97755458 -173.5234375 309.33203125 C-176.41514811 305.31117649 -176.98656537 302.75798438 -176.31640625 297.87109375 C-174.70911572 290.8678993 -170.32796385 286.15390043 -165.31640625 281.22265625 C-161.81515391 277.66803116 -158.82240436 273.77042664 -155.7421875 269.8515625 C-155.08605469 269.11550781 -154.42992187 268.37945312 -153.75390625 267.62109375 C-153.09390625 267.62109375 -152.43390625 267.62109375 -151.75390625 267.62109375 C-151.47772461 267.02941406 -151.20154297 266.43773437 -150.91699219 265.828125 C-149.09039025 262.36202897 -146.54499175 259.58362757 -144.00390625 256.62109375 C-143.49085938 256.00492188 -142.9778125 255.38875 -142.44921875 254.75390625 C-137.76734845 249.27211841 -133.33666543 245.26084959 -125.87890625 244.55859375 C-120.70634706 244.28905593 -117.51055877 244.98408158 -113.37109375 248.1015625 C-107.94186801 253.20293644 -105.87361061 259.02996282 -105.62890625 266.37109375 C-107.16247699 275.68077021 -116.14329074 283.48517669 -122.75390625 289.62109375 C-122.42390625 290.61109375 -122.09390625 291.60109375 -121.75390625 292.62109375 C-120.0993054 293.31716721 -118.43029848 293.97927501 -116.75390625 294.62109375 C-115.12852633 295.81590945 -113.54616674 297.07075648 -112.00390625 298.37109375 C-107.96039625 301.71032873 -103.82705183 304.63461258 -99.37109375 307.39453125 C-98.83742187 307.79929687 -98.30375 308.2040625 -97.75390625 308.62109375 C-97.75390625 309.28109375 -97.75390625 309.94109375 -97.75390625 310.62109375 C-97.02816406 310.88921875 -96.30242187 311.15734375 -95.5546875 311.43359375 C-92.78526601 312.60779756 -90.44471191 313.96052615 -87.94140625 315.62109375 C-87.15121094 316.13671875 -86.36101562 316.65234375 -85.546875 317.18359375 C-84.65935547 317.89515625 -84.65935547 317.89515625 -83.75390625 318.62109375 C-83.75390625 319.28109375 -83.75390625 319.94109375 -83.75390625 320.62109375 C-83.07328125 320.84796875 -82.39265625 321.07484375 -81.69140625 321.30859375 C-79.12379872 322.45582264 -77.53777781 323.52581912 -75.37890625 325.24609375 C-72.90590654 327.02008712 -71.63193232 327.64740185 -68.56640625 328.30859375 C-62.04661736 327.13289411 -55.47565265 324.57300898 -50.90625 319.6171875 C-49.63185995 317.65915964 -48.64584658 315.77698973 -47.75390625 313.62109375 C-47.38265625 312.75484375 -47.01140625 311.88859375 -46.62890625 310.99609375 C-46.82309037 307.30659542 -49.30134299 305.18397439 -51.75390625 302.62109375 C-53.83286347 300.8573771 -55.89319343 299.19284979 -58.06640625 297.55859375 C-59.31352726 296.60029372 -60.5595787 295.64060053 -61.8046875 294.6796875 C-62.45131348 294.18194824 -63.09793945 293.68420898 -63.76416016 293.17138672 C-67.13833832 290.54242582 -70.44396819 287.83017423 -73.75390625 285.12109375 C-77.71576482 281.87913563 -81.68579222 278.65572126 -85.73828125 275.52734375 C-86.68960938 274.79161133 -86.68960938 274.79161133 -87.66015625 274.04101562 C-88.84882482 273.12558972 -90.04127416 272.21504209 -91.23828125 271.31054688 C-94.59863922 268.72161724 -97.3677538 266.14052624 -99.75390625 262.62109375 C-100.17399173 259.1403855 -100.3987407 256.79696834 -98.69140625 253.68359375 C-95.42899431 251.89452914 -93.45038019 252.09302604 -89.75390625 252.62109375 C-80.22090173 256.53803182 -72.26098466 264.60489319 -64.49633789 271.20410156 C-62.59913189 272.79260603 -62.59913189 272.79260603 -59.75390625 274.62109375 C-59.75390625 275.28109375 -59.75390625 275.94109375 -59.75390625 276.62109375 C-59.18800781 276.87632812 -58.62210938 277.1315625 -58.0390625 277.39453125 C-55.47733506 278.76954393 -53.43176583 280.39327577 -51.19140625 282.24609375 C-49.3797903 283.70552515 -47.56724833 285.16380762 -45.75390625 286.62109375 C-44.35978516 287.74451172 -44.35978516 287.74451172 -42.9375 288.890625 C-35.62915391 294.57471034 -35.62915391 294.57471034 -26.75390625 295.62109375 C-22.71125282 294.5974494 -19.80722381 293.1418779 -17.3984375 289.6640625 C-14.41482534 283.51372841 -13.24379954 277.26471311 -14.19140625 270.49609375 C-17.42862025 264.53962 -23.0438491 261.01144018 -28.75390625 257.62109375 C-28.75390625 256.96109375 -28.75390625 256.30109375 -28.75390625 255.62109375 C-29.49511719 255.36457031 -30.23632812 255.10804688 -31 254.84375 C-33.87961116 253.56528434 -35.54838937 252.22173124 -37.81640625 250.05859375 C-44.01599124 244.35914335 -50.74820855 239.29155888 -57.75390625 234.62109375 C-57.75390625 233.96109375 -57.75390625 233.30109375 -57.75390625 232.62109375 C-58.34558594 232.358125 -58.93726563 232.09515625 -59.546875 231.82421875 C-63.13484017 229.86830145 -65.64952518 227.11146373 -67.75390625 223.62109375 C-67.69245587 220.3642235 -67.19193105 218.49714335 -65.75390625 215.62109375 C-62.12938507 214.41292002 -59.56675556 214.28549832 -55.75390625 214.62109375 C-52.7890625 216.3515625 -52.7890625 216.3515625 -49.81640625 218.80859375 C-48.99885864 219.47157471 -48.99885864 219.47157471 -48.16479492 220.14794922 C-46.98082895 221.11101238 -45.80305215 222.08172326 -44.63085938 223.05908203 C-42.67053216 224.69047817 -40.69163757 226.29668459 -38.70703125 227.8984375 C-35.9598165 230.11735419 -33.21884065 232.34351503 -30.484375 234.578125 C-26.70009195 237.66898795 -22.89140394 240.72820219 -19.0703125 243.7734375 C-17.38741757 245.11578034 -15.70821079 246.46275107 -14.03125 247.8125 C-13.13535156 248.53308594 -12.23945313 249.25367188 -11.31640625 249.99609375 C-10.51332031 250.64320313 -9.71023438 251.2903125 -8.8828125 251.95703125 C-4.52805578 255.36093283 -2.26126779 255.82891871 3.24609375 255.62109375 C3.65214844 254.739375 3.65214844 254.739375 4.06640625 253.83984375 C5.23075216 251.64994813 6.52348886 250.00841973 8.12109375 248.12109375 C11.83868936 243.22229165 14.30265468 237.71413774 15.24609375 231.62109375 C14.3448364 225.6675324 11.93336357 222.80273981 7.30859375 219.24609375 C6.7273877 218.77695557 6.14618164 218.30781738 5.54736328 217.82446289 C3.79086417 216.40943871 2.01937047 215.01499519 0.24609375 213.62109375 C-1.63246909 212.10466351 -3.50774307 210.58414526 -5.37890625 209.05859375 C-6.26449219 208.33929688 -7.15007812 207.62 -8.0625 206.87890625 C-11.88016545 203.67627834 -15.51704053 200.28797178 -19.17578125 196.90625 C-21.43983853 194.89947195 -23.72681508 193.11912786 -26.19140625 191.37109375 C-29.60115615 188.87341687 -31.89450051 186.50159268 -33.75390625 182.62109375 C-33.87890625 179.43359375 -33.87890625 179.43359375 -32.75390625 176.62109375 C-29.47640774 174.20198771 -27.50606793 173.59366197 -23.43359375 173.7421875 C-19.12324599 174.77172916 -16.66621281 176.68512312 -13.50390625 179.62109375 C-12.38121409 180.62092216 -11.25749691 181.61960065 -10.1328125 182.6171875 C-9.57352051 183.11976074 -9.01422852 183.62233398 -8.43798828 184.14013672 C-4.97720028 187.18350291 -1.32049798 189.99010199 2.296875 192.84375 C3.26173828 193.72353516 3.26173828 193.72353516 4.24609375 194.62109375 C4.24609375 195.28109375 4.24609375 195.94109375 4.24609375 196.62109375 C4.7771875 196.84796875 5.30828125 197.07484375 5.85546875 197.30859375 C9.03603437 199.05478664 11.72608282 201.30170661 14.49609375 203.62109375 C15.05039062 204.07226562 15.6046875 204.5234375 16.17578125 204.98828125 C17.57340957 206.15182404 18.91494938 207.38204113 20.24609375 208.62109375 C20.24609375 209.28109375 20.24609375 209.94109375 20.24609375 210.62109375 C24.12382662 212.44590922 26.97684333 213.27790151 31.24609375 212.62109375 C37.91158198 209.1998697 43.05556269 204.79353386 46.55859375 198.12109375 C47.45730087 194.85306786 47.83378137 193.01662221 47.24609375 189.62109375 C43.69286136 183.47434447 38.75918105 179.22665866 33.1796875 174.98046875 C29.54466909 172.05696526 26.19036698 168.89321789 22.80859375 165.68359375 C17.65785697 160.8089272 12.4043869 156.19341968 6.859375 151.765625 C3.09389073 148.67556392 -0.450027 145.35880859 -4.02734375 142.0546875 C-7.53368839 138.92509909 -11.21058792 136.05521404 -14.953125 133.21484375 C-15.54738281 132.68890625 -16.14164062 132.16296875 -16.75390625 131.62109375 C-16.75390625 130.96109375 -16.75390625 130.30109375 -16.75390625 129.62109375 C-17.33011719 129.36457031 -17.90632813 129.10804688 -18.5 128.84375 C-20.97342028 127.50201595 -22.75216524 125.96849898 -24.81640625 124.05859375 C-28.22889413 120.95480132 -31.7167921 118.00578453 -35.31640625 115.12109375 C-38.71527386 112.37075659 -41.89523211 109.56936124 -44.94140625 106.43359375 C-51.97743119 98.88149986 -51.97743119 98.88149986 -61.50390625 96.12109375 C-66.21996171 96.42257675 -70.85578131 97.20448457 -75.5 98.05859375 C-78.99291627 98.66241121 -82.48374865 99.08152209 -86.00390625 99.49609375 C-96.76634873 100.91422968 -106.93930491 103.46840077 -117.06640625 107.37109375 C-126.9392116 110.99783857 -135.97984028 110.51342091 -145.75390625 106.62109375 C-150.91870523 103.76563087 -156.19359626 100.58568273 -159.00390625 95.24609375 C-159.89792897 92.11701424 -159.80354568 90.6950378 -158.75390625 87.62109375 C-154.28433793 79.71339595 -147.43354852 74.19265321 -140.37109375 68.67578125 C-138.6058759 67.28995351 -136.86119633 65.87761295 -135.13671875 64.44140625 C-125.7334896 56.63872674 -115.13182257 52.1626524 -102.75390625 52.62109375 C-96.62761499 52.14247725 -90.70173166 51.16312256 -84.75390625 49.62109375 C-110.0815933 44.08066221 -137.69504934 48.0342269 -162.84765625 52.875 C-165.59715834 53.4001549 -168.33600108 53.88815133 -171.09765625 54.3359375 C-171.81550293 54.45710938 -172.53334961 54.57828125 -173.27294922 54.703125 C-175.23695445 55.03463342 -177.20241319 55.3574985 -179.16796875 55.6796875 C-185.74376612 57.40601339 -189.25921814 59.34868021 -192.78125 65.109375 C-193.7910722 66.93627465 -194.78111136 68.7742117 -195.75390625 70.62109375 C-196.27227051 71.57032715 -196.79063477 72.51956055 -197.32470703 73.49755859 C-199.00774409 76.59132451 -200.66361437 79.69857471 -202.31640625 82.80859375 C-208.39522903 94.17170104 -214.67229432 105.40727912 -221.04492188 116.60742188 C-224.21884224 122.20440374 -227.36076369 127.81928806 -230.50390625 133.43359375 C-231.11298828 134.520354 -231.72207031 135.60711426 -232.34960938 136.72680664 C-232.91099609 137.7296167 -233.47238281 138.73242676 -234.05078125 139.765625 C-234.54932617 140.65612549 -235.04787109 141.54662598 -235.56152344 142.46411133 C-240.30259819 151.04056412 -235.85253851 162.57981641 -233.75390625 171.62109375 C-233.09390625 171.62109375 -232.43390625 171.62109375 -231.75390625 171.62109375 C-231.75390625 170.96109375 -231.75390625 170.30109375 -231.75390625 169.62109375 C-217.1941057 161.657278 -217.1941057 161.657278 -210.14453125 163.1875 C-202.74453376 165.8037713 -199.6173325 169.20481229 -195.87890625 176.05859375 C-194.14147719 181.56045242 -195.17713893 185.04809196 -197.12890625 190.37109375 C-199.78733223 195.42210312 -204.00609213 199.12419876 -208.09765625 203.0078125 C-210.79833208 205.55273882 -210.79833208 205.55273882 -212.97265625 208.453125 C-213.56046875 209.16855469 -214.14828125 209.88398438 -214.75390625 210.62109375 C-215.41390625 210.62109375 -216.07390625 210.62109375 -216.75390625 210.62109375 C-217.01131592 211.19923828 -217.26872559 211.77738281 -217.53393555 212.37304688 C-218.86368422 214.82338224 -220.36213053 216.5635396 -222.2734375 218.58984375 C-222.96630859 219.32589844 -223.65917969 220.06195313 -224.37304688 220.8203125 C-225.09685547 221.57957031 -225.82066406 222.33882812 -226.56640625 223.12109375 C-227.27861328 223.88035156 -227.99082031 224.63960937 -228.72460938 225.421875 C-239.84143844 237.16601819 -239.84143844 237.16601819 -246.33984375 237.921875 C-253.56193115 237.95221991 -257.83583531 237.131992 -263.44140625 232.30859375 C-267.34402026 227.77312342 -269.39840188 223.87184126 -269.0859375 217.73828125 C-267.58997305 208.19930793 -260.62168092 200.88058421 -254.75390625 193.62109375 C-254.03203125 192.6671875 -253.31015625 191.71328125 -252.56640625 190.73046875 C-251.96828125 190.034375 -251.37015625 189.33828125 -250.75390625 188.62109375 C-250.09390625 188.62109375 -249.43390625 188.62109375 -248.75390625 188.62109375 C-247.57127355 182.93850642 -248.09569245 178.9070329 -249.69140625 173.37109375 C-251.75390625 165.91069771 -251.75390625 165.91069771 -251.75390625 162.62109375 C-252.31078125 162.523125 -252.86765625 162.42515625 -253.44140625 162.32421875 C-264.97658299 160.06394763 -274.40174776 153.46124166 -284.12890625 147.12109375 C-288.96083742 143.98928651 -293.94243488 141.55921754 -299.22265625 139.2734375 C-302.49757354 137.13564427 -303.48926245 135.29545884 -304.75390625 131.62109375 C-303.71072959 123.19439394 -297.91709632 114.61066862 -294.02880859 107.09277344 C-292.61956562 104.36064477 -291.22804586 101.6198029 -289.8359375 98.87890625 C-282.31217497 84.14977946 -274.25507222 69.80656105 -265.75390625 55.62109375 C-265.25084961 54.77901367 -264.74779297 53.93693359 -264.22949219 53.06933594 C-240.54117255 13.51446192 -240.54117255 13.51446192 -231.75390625 10.62109375 C-227.07568646 10.09013015 -224.1573395 9.9647155 -220.26171875 12.7109375 C-219.11721207 13.6397065 -217.98995653 14.59005121 -216.87890625 15.55859375 C-216.27739746 16.05713867 -215.67588867 16.55568359 -215.05615234 17.06933594 C-213.26769145 18.56392723 -211.50692483 20.08516883 -209.75390625 21.62109375 C-208.81546875 22.44222656 -207.87703125 23.26335937 -206.91015625 24.109375 C-204.50447311 26.25889743 -202.12584316 28.43446441 -199.75390625 30.62109375 C-198.30135507 31.93999005 -196.84338104 33.25294987 -195.37890625 34.55859375 C-194.77304688 35.10386719 -194.1671875 35.64914063 -193.54296875 36.2109375 C-190.87983185 38.31004759 -188.90508206 39.59760037 -185.45703125 39.66796875 C-180.77630992 39.10151203 -176.31581288 38.34120533 -171.76953125 37.09375 C-168.78491333 36.39386867 -165.78433097 36.13169696 -162.734375 35.8671875 C-160.5464303 35.66128525 -160.5464303 35.66128525 -157.75390625 34.62109375 C-155.68911388 34.34753069 -153.61897282 34.11356616 -151.546875 33.90234375 C-149.70706055 33.71091797 -149.70706055 33.71091797 -147.83007812 33.515625 C-145.90518555 33.32033203 -145.90518555 33.32033203 -143.94140625 33.12109375 C-141.4138936 32.86232155 -138.88654308 32.60195966 -136.359375 32.33984375 C-135.23684326 32.22576172 -134.11431152 32.11167969 -132.95776367 31.99414062 C-130.89470616 31.75392483 -128.83717646 31.45561824 -126.79321289 31.08666992 C-121.29423003 30.24430826 -115.73054906 30.43516383 -110.17871094 30.43579102 C-108.02388468 30.43361393 -105.86957908 30.41545038 -103.71484375 30.39648438 C-96.16896601 30.36595545 -89.1113796 30.80868245 -81.75390625 32.62109375 C-79.92151493 32.91862121 -78.08837185 33.21163548 -76.25390625 33.49609375 C-68.35462724 34.936355 -61.67861958 38.12068164 -54.62890625 41.87109375 C-49.62271342 44.44533761 -46.32430263 45.26383179 -40.75390625 44.62109375 C-40.52574219 44.09386719 -40.29757812 43.56664062 -40.0625 43.0234375 C-38.31277883 39.81126281 -36.08836019 37.03455743 -33.81640625 34.18359375 C-33.0898584 33.26477417 -33.0898584 33.26477417 -32.34863281 32.32739258 C-28.53317988 27.53098152 -24.60009243 22.84204194 -20.61523438 18.18603516 C-17.37545338 14.39183433 -14.28342673 10.51337039 -11.2890625 6.5234375 C-5.74409471 -0.34780757 -5.74409471 -0.34780757 0 0 Z M-1.75390625 19.62109375 C-2.264375 20.25273438 -2.77484375 20.884375 -3.30078125 21.53515625 C-9.65060684 29.34859413 -16.1772533 36.99840801 -22.75390625 44.62109375 C-19.29582778 48.83593037 -15.86401856 52.60221535 -11.56640625 55.99609375 C-10.61121094 56.75921875 -9.65601563 57.52234375 -8.671875 58.30859375 C-7.70894531 59.07171875 -6.74601562 59.83484375 -5.75390625 60.62109375 C-3.95913849 62.07560887 -2.16744732 63.53392879 -0.37890625 64.99609375 C0.97654297 66.10404297 0.97654297 66.10404297 2.359375 67.234375 C6.0957312 70.32356801 9.78691212 73.46430797 13.47998047 76.60498047 C17.47055474 79.98909169 21.53589774 83.26579136 25.63671875 86.515625 C29.87753765 89.93748336 34.01881042 93.47584147 38.16796875 97.0078125 C38.9269043 97.65049072 38.9269043 97.65049072 39.70117188 98.30615234 C40.77349261 99.21884506 41.83948851 100.13900057 42.90039062 101.06494141 C45.6739455 103.75876058 45.6739455 103.75876058 49.24609375 104.62109375 C49.24609375 105.28109375 49.24609375 105.94109375 49.24609375 106.62109375 C51.22609375 107.61109375 51.22609375 107.61109375 53.24609375 108.62109375 C63.30167299 99.11368502 63.30167299 99.11368502 72.24609375 88.62109375 C72.24609375 87.96109375 72.24609375 87.30109375 72.24609375 86.62109375 C72.90609375 86.62109375 73.56609375 86.62109375 74.24609375 86.62109375 C74.74109375 85.13609375 74.74109375 85.13609375 75.24609375 83.62109375 C74.12639515 82.61516132 73.00015255 81.61650885 71.87109375 80.62109375 C71.24460937 80.06421875 70.618125 79.50734375 69.97265625 78.93359375 C68.34219542 77.41936888 68.34219542 77.41936888 66.24609375 77.62109375 C66.24609375 76.96109375 66.24609375 76.30109375 66.24609375 75.62109375 C65.58609375 75.62109375 64.92609375 75.62109375 64.24609375 75.62109375 C64.24609375 74.96109375 64.24609375 74.30109375 64.24609375 73.62109375 C60.76610868 69.98475836 60.76610868 69.98475836 56.24609375 68.62109375 C56.24609375 67.96109375 56.24609375 67.30109375 56.24609375 66.62109375 C55.58609375 66.62109375 54.92609375 66.62109375 54.24609375 66.62109375 C54.24609375 65.96109375 54.24609375 65.30109375 54.24609375 64.62109375 C50.76610868 60.98475836 50.76610868 60.98475836 46.24609375 59.62109375 C45.91609375 58.63109375 45.58609375 57.64109375 45.24609375 56.62109375 C43.1737985 54.67914114 43.1737985 54.67914114 40.55859375 52.68359375 C36.04130215 49.08030668 31.61735575 45.40003894 27.24609375 41.62109375 C22.112829 37.19564824 16.92227308 32.86009909 11.65234375 28.59765625 C9.48844362 26.82016685 7.39578886 24.98718769 5.30859375 23.12109375 C2.52664862 20.85011813 1.55430438 20.24986813 -1.75390625 19.62109375 Z M-227.75390625 26.62109375 C-235.98263726 38.45740619 -243.9509004 50.41851182 -251.54541016 62.67236328 C-252.51845526 64.24142308 -253.50006102 65.80517232 -254.484375 67.3671875 C-258.32452626 73.57381852 -261.63940998 80.05460166 -265.0078125 86.5246582 C-267.35763623 91.02391594 -269.77339315 95.45017252 -272.37890625 99.80859375 C-276.58377384 106.86997471 -280.14093586 114.24565075 -283.75390625 121.62109375 C-284.15996094 122.37390625 -284.56601562 123.12671875 -284.984375 123.90234375 C-285.95822572 125.76358233 -285.95822572 125.76358233 -285.75390625 128.62109375 C-285.16867187 128.92660156 -284.5834375 129.23210937 -283.98046875 129.546875 C-274.66678388 134.5113767 -265.72530812 140.06899208 -256.75390625 145.62109375 C-252.67505905 142.11568992 -250.68458249 138.02894832 -248.31640625 133.30859375 C-244.56322544 126.00028731 -240.64612283 118.81456345 -236.56640625 111.68359375 C-231.26804629 102.40178952 -226.17613121 93.02090651 -221.17861938 83.57492065 C-218.01019632 77.58699992 -214.81505652 71.63927619 -211.32421875 65.83203125 C-210.8029541 64.96352539 -210.28168945 64.09501953 -209.74462891 63.20019531 C-208.78306316 61.6172181 -207.80713501 60.0428343 -206.81396484 58.47949219 C-204.815971 55.19756416 -203.76948451 53.26992836 -203.67578125 49.3671875 C-205.02176066 45.93884139 -206.53035933 44.70077918 -209.50390625 42.55859375 C-213.2217615 39.77681301 -216.55452001 37.00330206 -219.75390625 33.62109375 C-221.38227363 31.91698835 -223.04160377 30.24083934 -224.75390625 28.62109375 C-225.41390625 28.62109375 -226.07390625 28.62109375 -226.75390625 28.62109375 C-227.24890625 27.63109375 -227.24890625 27.63109375 -227.75390625 26.62109375 Z " fill="#F4F4FC" transform="translate(354.75390625,78.37890625)"/>
<path d="M0 0 C4.63312296 2.53033081 6.83676803 5.87026753 8.953125 10.62109375 C9.95666769 15.82845306 9.26318916 19.81608486 6.62109375 24.29296875 C5.821875 25.27136719 5.02265625 26.24976563 4.19921875 27.2578125 C3.76101807 27.80163574 3.32281738 28.34545898 2.87133789 28.90576172 C-1.76032606 34.59597654 -6.61136113 40.11019935 -11.44921875 45.625 C-14.11715423 48.67615689 -16.69405885 51.78975751 -19.23828125 54.9453125 C-23.08019244 59.69453851 -27.13715514 64.20798642 -31.2890625 68.6875 C-33.58029233 71.16104593 -33.58029233 71.16104593 -35.578125 73.83984375 C-38.96210752 77.88051991 -43.46341328 80.58581366 -48.66796875 81.61328125 C-53.53928302 81.81230382 -57.35887105 80.56809186 -61.55078125 78.1953125 C-66.50586279 73.24023096 -69.15255928 68.28153278 -70.05078125 61.3203125 C-69.7071622 53.24526489 -63.75156996 46.86890018 -58.55078125 41.1953125 C-57.44444962 39.92636344 -56.3403779 38.65544142 -55.23828125 37.3828125 C-51.7762723 33.4316897 -48.2577293 29.53274142 -44.73828125 25.6328125 C-42.82523976 23.50113769 -40.93190513 21.3551214 -39.05078125 19.1953125 C-37.8848826 17.86130754 -36.71815716 16.52802491 -35.55078125 15.1953125 C-34.80570313 14.34453125 -34.060625 13.49375 -33.29296875 12.6171875 C-32.12121094 11.29460937 -32.12121094 11.29460937 -30.92578125 9.9453125 C-29.85457031 8.73101562 -29.85457031 8.73101562 -28.76171875 7.4921875 C-20.84708334 -0.73008392 -11.20962742 -3.53626837 0 0 Z " fill="#F7F7FD" transform="translate(210.55078125,299.8046875)"/>
<path d="M0 0 C4.41574806 2.9995616 6.33448236 7.07105192 8.3359375 11.8359375 C9.09909535 16.13672424 8.93453537 20.20532391 6.68676758 23.98657227 C5.28355617 25.76482615 3.80659697 27.41721929 2.25390625 29.06640625 C1.44022583 29.97193237 1.44022583 29.97193237 0.61010742 30.89575195 C-0.99367252 32.6753404 -2.61756454 34.43448464 -4.24609375 36.19140625 C-5.81071709 37.91865186 -7.37347609 39.64758984 -8.93359375 41.37890625 C-9.65546875 42.17296875 -10.37734375 42.96703125 -11.12109375 43.78515625 C-13.30577389 46.25898523 -15.37197812 48.80188671 -17.43359375 51.37890625 C-38.33618164 77.22143555 -38.33618164 77.22143555 -47.24609375 80.19140625 C-54.24266297 79.51431891 -58.68325557 76.47946374 -63.24609375 71.19140625 C-66.54815494 66.22474434 -67.98361734 61.53765173 -67.0078125 55.609375 C-65.48661784 50.78055709 -62.87474777 46.49210932 -60.24609375 42.19140625 C-59.58609375 42.19140625 -58.92609375 42.19140625 -58.24609375 42.19140625 C-57.89611328 41.11826172 -57.89611328 41.11826172 -57.5390625 40.0234375 C-56.0088667 36.67180018 -54.08665396 34.55408176 -51.55859375 31.87890625 C-50.64513559 30.90299638 -49.73237726 29.92643099 -48.8203125 28.94921875 C-47.97082031 28.03914063 -47.12132812 27.1290625 -46.24609375 26.19140625 C-45.11440793 24.88466663 -43.98857681 23.57281218 -42.87109375 22.25390625 C-38.40559449 17.10794996 -33.50961251 12.37517047 -28.66308594 7.59228516 C-26.51455422 5.4681854 -24.38058986 3.32959526 -22.24609375 1.19140625 C-16.11467659 -4.94001091 -6.97563532 -3.91782258 0 0 Z " fill="#F6F5FC" transform="translate(180.24609375,272.80859375)"/>
<path d="M0 0 C0.33 0.66 0.66 1.32 1 2 C0.43410156 2.48210937 -0.13179687 2.96421875 -0.71484375 3.4609375 C-1.44832031 4.09257812 -2.18179688 4.72421875 -2.9375 5.375 C-3.66839844 6.00148437 -4.39929688 6.62796875 -5.15234375 7.2734375 C-7.08380906 8.87747714 -7.08380906 8.87747714 -8 11 C-8.66 11 -9.32 11 -10 11 C-10.33 11.99 -10.66 12.98 -11 14 C-11.598125 14.144375 -12.19625 14.28875 -12.8125 14.4375 C-15.7370023 15.18951488 -17.01030655 16.79712511 -19 19 C-19.66 18.67 -20.32 18.34 -21 18 C-14.60815497 11.22718408 -7.45612297 5.55352607 0 0 Z " fill="#B6B3F1" transform="translate(221,142)"/>
<path d="M0 0 C1 3 1 3 0 6 C-1.77734375 7.7890625 -1.77734375 7.7890625 -3.9375 9.625 C-4.64777344 10.23601562 -5.35804688 10.84703125 -6.08984375 11.4765625 C-8 13 -8 13 -10 14 C-8.43632643 10.47761953 -6.30504111 7.72876006 -3.875 4.75 C-3.15054687 3.85796875 -2.42609375 2.9659375 -1.6796875 2.046875 C-0.84824219 1.03367187 -0.84824219 1.03367187 0 0 Z " fill="#B3AFF4" transform="translate(328,104)"/>
<path d="M0 0 C0.33 0.99 0.66 1.98 1 3 C0.01 3.99 -0.98 4.98 -2 6 C-1.67 6.66 -1.34 7.32 -1 8 C-3.9465385 9.80066242 -6.88801935 11.50163895 -10 13 C-7.69704835 7.8183588 -4.04580863 3.90131547 0 0 Z " fill="#C2BFF3" transform="translate(191,358)"/>
<path d="M0 0 C0 3 0 3 -2.625 5.91796875 C-3.74249406 7.01550756 -4.86785643 8.10507895 -6 9.1875 C-6.57234375 9.74630859 -7.1446875 10.30511719 -7.734375 10.88085938 C-9.14962788 12.26073093 -10.57397155 13.63126734 -12 15 C-12.66 14.67 -13.32 14.34 -14 14 C-9.33333333 9.33333333 -4.66666667 4.66666667 0 0 Z " fill="#C4C4F9" transform="translate(158,274)"/>
<path d="M0 0 C0 0.33 0 0.66 0 1 C-1.3921875 1.1546875 -1.3921875 1.1546875 -2.8125 1.3125 C-6.08902627 2.01920174 -7.15538519 2.28162027 -9 5 C-9.72197162 7.60611077 -9.72197162 7.60611077 -10 10 C-10.66 9.67 -11.32 9.34 -12 9 C-11.125 3.25 -11.125 3.25 -10 1 C-6.52674819 -0.1577506 -3.63932552 -0.06866652 0 0 Z " fill="#AEABF7" transform="translate(299,293)"/>
<path d="M0 0 C0.99 0 1.98 0 3 0 C1.23570801 4.97209562 -1.3939166 9.43438061 -4 14 C-4.66 13.01 -5.32 12.02 -6 11 C-5.34 10.01 -4.68 9.02 -4 8 C-3.34 8 -2.68 8 -2 8 C-2 6.68 -2 5.36 -2 4 C-1.34 4 -0.68 4 0 4 C0 2.68 0 1.36 0 0 Z " fill="#BDB8EE" transform="translate(128,198)"/>
<path d="M0 0 C0 0.33 0 0.66 0 1 C-1.98 1 -3.96 1 -6 1 C-6 1.66 -6 2.32 -6 3 C-7.8125 4.6875 -7.8125 4.6875 -10 6 C-10.99 5.67 -11.98 5.34 -13 5 C-8.7797731 -0.27528362 -6.38501231 -0.54110274 0 0 Z " fill="#C9C5F5" transform="translate(357,79)"/>
<path d="M0 0 C0.33 0 0.66 0 1 0 C1.268125 0.928125 1.53625 1.85625 1.8125 2.8125 C2.91148371 5.76240366 3.62418561 7.05615186 6 9 C5.01 9.66 4.02 10.32 3 11 C0.39665076 8.28817788 0.00543309 7.10866187 -0.1875 3.25 C-0.125625 2.1775 -0.06375 1.105 0 0 Z " fill="#D3D1F9" transform="translate(255,334)"/>
<path d="M0 0 C3.16717283 1.58358642 4.73268318 2.45263699 6.3125 5.6875 C6.539375 6.450625 6.76625 7.21375 7 8 C5.68 7.67 4.36 7.34 3 7 C2.87625 6.360625 2.7525 5.72125 2.625 5.0625 C2.315625 4.0415625 2.315625 4.0415625 2 3 C1.34 2.67 0.68 2.34 0 2 C0 1.34 0 0.68 0 0 Z " fill="#A6A4F1" transform="translate(211,301)"/>
<path d="M0 0 C0.33 1.32 0.66 2.64 1 4 C-1.97 6.475 -1.97 6.475 -5 9 C-5.66 8.67 -6.32 8.34 -7 8 C-4.69 5.36 -2.38 2.72 0 0 Z " fill="#CECBF6" transform="translate(424,169)"/>
<path d="M0 0 C0.33 1.32 0.66 2.64 1 4 C-1.31 5.98 -3.62 7.96 -6 10 C-6.66 9.67 -7.32 9.34 -8 9 C-5.36 6.03 -2.72 3.06 0 0 Z " fill="#CDCBF5" transform="translate(168,323)"/>
<path d="M0 0 C0.33 1.32 0.66 2.64 1 4 C-1.64 5.65 -4.28 7.3 -7 9 C-5.04783565 5.09567131 -3.12613393 2.96160056 0 0 Z " fill="#AEAEEE" transform="translate(176,314)"/>
<path d="M0 0 C0.33 0.66 0.66 1.32 1 2 C0.21654285 3.17219543 -0.57702836 4.33763668 -1.375 5.5 C-1.81585938 6.1496875 -2.25671875 6.799375 -2.7109375 7.46875 C-3.13632813 7.9740625 -3.56171875 8.479375 -4 9 C-4.66 9 -5.32 9 -6 9 C-4.68775452 5.06326356 -3.08089673 2.77280706 0 0 Z " fill="#C9C9F6" transform="translate(150,344)"/>
<path d="M0 0 C1.125 3.75 1.125 3.75 0 6 C-0.66 6 -1.32 6 -2 6 C-2.33 6.66 -2.66 7.32 -3 8 C-3.33 7.01 -3.66 6.02 -4 5 C-2.0625 2.3125 -2.0625 2.3125 0 0 Z " fill="#C3C2F0" transform="translate(126,308)"/>
<path d="M0 0 C2.50037734 2.17424117 3.43628586 3.73045798 4 7 C-1.875 3.25 -1.875 3.25 -3 1 C-2.01 0.67 -1.02 0.34 0 0 Z " fill="#BDBBF3" transform="translate(355,220)"/>
<path d="M0 0 C3.3 0.33 6.6 0.66 10 1 C10 1.66 10 2.32 10 3 C8.72125 3.061875 7.4425 3.12375 6.125 3.1875 C5.40570313 3.22230469 4.68640625 3.25710937 3.9453125 3.29296875 C3.30335938 3.19628906 2.66140625 3.09960938 2 3 C1.34 2.01 0.68 1.02 0 0 Z " fill="#736AE1" transform="translate(268,126)"/>
<path d="M0 0 C0.33 1.32 0.66 2.64 1 4 C-1.4375 6.75 -1.4375 6.75 -4 9 C-4.66 8.67 -5.32 8.34 -6 8 C-4.02 5.36 -2.04 2.72 0 0 Z " fill="#BDB9F5" transform="translate(343,85)"/>
<path d="M0 0 C2.97 1.98 2.97 1.98 6 4 C4.02 4.99 4.02 4.99 2 6 C1.01 4.68 0.02 3.36 -1 2 C-0.67 1.34 -0.34 0.68 0 0 Z " fill="#BDBAF5" transform="translate(340,326)"/>
<path d="M0 0 C0.99 0.33 1.98 0.66 3 1 C-0.465 3.97 -0.465 3.97 -4 7 C-4 6.01 -4 5.02 -4 4 C-2.68 3.34 -1.36 2.68 0 2 C0 1.34 0 0.68 0 0 Z " fill="#C3C2F8" transform="translate(133,292)"/>
<path d="M0 0 C0.33 1.32 0.66 2.64 1 4 C-0.65 5.32 -2.3 6.64 -4 8 C-4.66 7.67 -5.32 7.34 -6 7 C-4.02 4.69 -2.04 2.38 0 0 Z " fill="#CECEF6" transform="translate(217,328)"/>
<path d="M0 0 C0 3.69418201 -1.28179295 5.77836178 -3 9 C-3.66 7.68 -4.32 6.36 -5 5 C-4.01 4.67 -3.02 4.34 -2 4 C-2 3.01 -2 2.02 -2 1 C-1.34 0.67 -0.68 0.34 0 0 Z " fill="#B2B0ED" transform="translate(101,143)"/>
<path d="M0 0 C0.99 0.66 1.98 1.32 3 2 C0.66666667 4.33333333 -1.66666667 6.66666667 -4 9 C-2.94124926 5.59687262 -1.99097846 2.98646769 0 0 Z " fill="#CDCAF7" transform="translate(147,136)"/>
</svg>
