<?xml version="1.0" encoding="UTF-8"?>
<svg version="1.1" xmlns="http://www.w3.org/2000/svg" width="500" height="500">
<path d="M0 0 C165 0 330 0 500 0 C500 165 500 330 500 500 C335 500 170 500 0 500 C0 335 0 170 0 0 Z " fill="#6259FF" transform="translate(0,0)"/>
<path d="M0 0 C8.30475559 1.7707368 15.26317205 10.44873825 21.3125 15.96875 C23.92025525 18.29028821 26.59541144 20.49530355 29.3125 22.6875 C34.086403 26.54825137 38.60888428 30.62437075 43.125 34.78125 C45.81237634 37.19378104 48.56465444 39.4825621 51.375 41.75 C56.13095419 45.58719031 60.63004801 49.64385101 65.125 53.78125 C68.67928891 56.97203209 72.38470715 59.95123943 76.1015625 62.94921875 C79.97844211 66.16539071 83.67347478 69.56470573 87.3671875 72.98828125 C89.82867706 75.30359694 89.82867706 75.30359694 92.6328125 77.16796875 C94.875 79.25 94.875 79.25 95.93359375 82.1640625 C95.8561314 86.24374643 94.61281171 87.58912215 91.9375 90.625 C91.10605469 91.57761719 90.27460938 92.53023438 89.41796875 93.51171875 C86.60901762 96.53641114 83.74058822 99.47442812 80.78125 102.3515625 C78.22920983 104.89314349 75.87693103 107.57821776 73.5390625 110.31640625 C72.45521187 111.57581015 71.34655843 112.81441529 70.2109375 114.02734375 C64.69978834 120.01359198 63.07222942 126.10241194 61.5 133.9375 C59.18957036 145.13051404 55.02044106 154.66233404 48.875 164.25 C48.545 164.91 48.215 165.57 47.875 166.25 C48.53886719 166.75789062 49.20273437 167.26578125 49.88671875 167.7890625 C64.08159554 178.85484966 64.08159554 178.85484966 65.24609375 186.7734375 C65.49773562 197.57923531 62.76757351 207.32803826 55.8125 215.75 C50.46699039 221.19400309 43.63954316 225.14837152 36.171875 226.875 C33.46068447 228.49802562 33.34526493 229.10044582 32.46875 232.03125 C32.08744041 233.60019578 31.72373416 235.17349363 31.375 236.75 C28.54690981 248.01239449 24.8088851 257.3671602 15.875 265.25 C13.95021906 266.27426783 12.01214488 267.27388982 10.0625 268.25 C7.31679633 269.85889926 5.34732844 271.02451699 4.17529297 274.06542969 C3.31206688 277.72235373 2.90133836 281.41331935 2.46484375 285.140625 C1.83706538 290.30781383 -0.04896932 294.08417559 -3.125 298.25 C-3.77082031 299.19746094 -3.77082031 299.19746094 -4.4296875 300.1640625 C-8.28367023 305.28093222 -13.13365152 308.10332008 -19.125 310.25 C-20.89264393 310.46550376 -22.66384457 310.6539019 -24.4375 310.8125 C-26.96432679 311.10544713 -26.96432679 311.10544713 -29.125 312.25 C-30.77744787 315.07822808 -31.74235838 317.91053295 -32.80078125 321.0078125 C-36.8375299 330.8912974 -46.46317896 337.91015241 -56 342.125 C-65.00368853 345.10836505 -72.82378351 343.26113888 -81.125 339.25 C-84.03619006 337.50612583 -86.73265144 335.54632596 -89.4375 333.5 C-90.19168213 332.9428833 -90.94586426 332.3857666 -91.72290039 331.81176758 C-94.20163729 329.97249273 -96.66513593 328.11443199 -99.125 326.25 C-100.01348633 325.57694824 -100.90197266 324.90389648 -101.81738281 324.21044922 C-108.58318332 319.07549704 -115.34680677 313.93641143 -122.07177734 308.74804688 C-123.62412008 307.5519723 -125.18647612 306.36892095 -126.75 305.1875 C-127.54664063 304.57777344 -128.34328125 303.96804688 -129.1640625 303.33984375 C-129.81117188 302.98019531 -130.45828125 302.62054688 -131.125 302.25 C-134.52040434 303.38180145 -135.27857852 304.35357199 -137.5 307.0625 C-142.01936228 312.36990235 -146.22790375 316.61456364 -153.3828125 317.54296875 C-158.98724016 317.86003882 -162.82588587 317.07828777 -167.43359375 313.8203125 C-170.17182945 311.27811677 -171.53409993 308.62270816 -173.125 305.25 C-173.455 304.59 -173.785 303.93 -174.125 303.25 C-174.71454394 298.36520737 -174.69303814 295.45827041 -171.75 291.4375 C-168.22126551 287.1864128 -164.43135798 283.15126111 -160.6875 279.08984375 C-158.30773407 276.45251169 -156.04518584 273.76212789 -153.8125 271 C-150.06928113 266.37602375 -146.2508696 261.82534183 -142.375 257.3125 C-141.83190186 256.67344727 -141.28880371 256.03439453 -140.72924805 255.37597656 C-132.30136137 245.61014506 -132.30136137 245.61014506 -127.0234375 245.01171875 C-119.98119062 244.80459384 -114.8445286 245.8450584 -109.5546875 250.6875 C-106.07652309 254.82154684 -105.10056624 259.161127 -104.8828125 264.49609375 C-105.74086495 274.25298053 -114.67325303 281.5722724 -121.125 288.25 C-119.58106239 292.44484936 -116.50427576 294.63515977 -113.0625 297.25 C-112.13691284 297.96458374 -112.13691284 297.96458374 -111.19262695 298.69360352 C-105.08955046 303.36164669 -98.82543024 307.79653657 -92.5078125 312.16796875 C-89.48566758 314.2669439 -86.53861205 316.43888781 -83.6171875 318.67578125 C-82.87509033 319.23209229 -82.13299316 319.78840332 -81.3684082 320.36157227 C-79.95940463 321.42009941 -78.56349525 322.49638989 -77.18432617 323.59350586 C-71.92988596 327.48643462 -67.58377751 328.14324267 -61.125 327.25 C-54.64320402 325.24064325 -49.97213482 320.70468758 -46.125 315.25 C-44.54183386 312.08366771 -44.73445144 309.74283051 -45.125 306.25 C-46.99658569 304.09860915 -48.51458709 302.67274281 -50.75 301 C-51.3368457 300.53311768 -51.92369141 300.06623535 -52.52832031 299.58520508 C-54.37884378 298.11967501 -56.25022508 296.68431575 -58.125 295.25 C-59.2542135 294.3653316 -60.38186388 293.47866376 -61.5078125 292.58984375 C-63.20111138 291.25453409 -64.89577148 289.92131168 -66.59667969 288.59570312 C-71.45862259 284.8037631 -76.23962958 280.91849589 -81 277 C-81.68932617 276.43369873 -82.37865234 275.86739746 -83.08886719 275.28393555 C-85.10937188 273.6158275 -87.11818092 271.93453672 -89.125 270.25 C-89.86492187 269.63987061 -90.60484375 269.02974121 -91.3671875 268.40112305 C-92.0890625 267.79308838 -92.8109375 267.18505371 -93.5546875 266.55859375 C-94.20937012 266.01259521 -94.86405273 265.46659668 -95.53857422 264.90405273 C-97.125 263.25 -97.125 263.25 -98.375 259.5625 C-98.125 256.25 -98.125 256.25 -96.5625 253.75 C-94.125 252.25 -94.125 252.25 -91.25 252.3125 C-84.54099329 254.32520201 -79.72342294 257.95809169 -74.4375 262.375 C-73.73343018 262.95540039 -73.02936035 263.53580078 -72.30395508 264.13378906 C-70.89118089 265.29882407 -69.48025117 266.46609982 -68.07128906 267.63574219 C-65.4964341 269.77133439 -62.90489711 271.88573954 -60.3125 274 C-57.64717564 276.18180975 -54.98395234 278.36606432 -52.32421875 280.5546875 C-49.59774001 282.79469908 -46.86375186 285.02501695 -44.125 287.25 C-43.28324219 287.93835938 -42.44148438 288.62671875 -41.57421875 289.3359375 C-40.78660156 289.96757812 -39.99898438 290.59921875 -39.1875 291.25 C-38.49785156 291.806875 -37.80820312 292.36375 -37.09765625 292.9375 C-33.0472124 295.63244878 -28.89531332 295.57898713 -24.125 295.25 C-18.62661157 293.20158078 -15.57045547 290.27136722 -13.04296875 284.98828125 C-11.98157455 281.82216494 -11.75431213 279.14917631 -11.6875 275.8125 C-11.64753906 274.72066406 -11.60757812 273.62882812 -11.56640625 272.50390625 C-12.78592922 265.39997176 -18.92002747 261.63587593 -24.4375 257.6875 C-32.27116316 251.94946647 -39.81403901 245.9122389 -47.30908203 239.74121094 C-49.01129841 238.34337044 -50.72047969 236.95476284 -52.43359375 235.5703125 C-53.40425781 234.78398437 -54.37492188 233.99765625 -55.375 233.1875 C-56.20515625 232.51589844 -57.0353125 231.84429687 -57.890625 231.15234375 C-63.97680564 225.97057806 -63.97680564 225.97057806 -64.55078125 223.1796875 C-64.23611111 217.47222222 -64.23611111 217.47222222 -63.125 215.25 C-59.58113043 214.45802915 -56.67566046 214.44573199 -53.125 215.25 C-48.99233929 218.02967498 -45.46624231 221.32314936 -41.828125 224.7109375 C-39.12940573 227.1496884 -36.25891016 229.34897968 -33.375 231.5625 C-27.1336702 236.40210014 -21.0396729 241.40844776 -14.98535156 246.47973633 C-8.04343363 252.50177537 -8.04343363 252.50177537 0.25 256.0625 C5.97229532 254.77991657 8.61563116 250.94065689 11.875 246.25 C15.38933388 239.88784384 17.6475701 233.58941599 16.875 226.25 C14.64779239 223.72509849 14.64779239 223.72509849 11.875 221.25 C11.04742187 220.47140625 10.21984375 219.6928125 9.3671875 218.890625 C3.98610982 213.97537196 -1.49930006 209.25675462 -7.16015625 204.66796875 C-28.04372255 187.63644367 -28.04372255 187.63644367 -31.125 182.25 C-31.38671875 179.640625 -31.38671875 179.640625 -31.125 177.25 C-28.87571112 174.6408249 -27.27040237 174.27516579 -23.875 173.6875 C-18.61523101 174.47646535 -16.08535936 176.82534142 -12.125 180.25 C-11.03585929 181.16880278 -9.9459551 182.08670096 -8.85546875 183.00390625 C-3.46873547 187.55991974 1.8419738 192.19156709 7.0625 196.9375 C17.87228687 207.96612412 17.87228687 207.96612412 31.55078125 212.765625 C38.14101182 211.30359065 44.2475282 205.77006578 47.875 200.25 C49.75140956 196.49718088 49.38744659 192.33722462 48.875 188.25 C45.84618786 182.29681752 41.16847786 178.87314042 35.98046875 174.77734375 C32.56807526 172.05070486 29.3781836 169.10541065 26.1875 166.125 C25.07817329 165.09109402 23.96879968 164.05723835 22.859375 163.0234375 C22.34181641 162.54100586 21.82425781 162.05857422 21.29101562 161.56152344 C17.18594624 157.75937987 12.92118115 154.14120104 8.6640625 150.51171875 C7.46337959 149.48716908 6.26286379 148.46242354 5.0625 147.4375 C4.45631836 146.92018311 3.85013672 146.40286621 3.22558594 145.86987305 C-0.5157082 142.66497771 -4.18615383 139.39790722 -7.8125 136.0625 C-11.30759889 132.85354956 -14.8678384 129.78934163 -18.5625 126.8125 C-22.55725056 123.59056036 -26.37045383 120.24336035 -30.125 116.75 C-34.82139307 112.38200476 -39.64993782 108.24672414 -44.68359375 104.265625 C-47.125 102.25 -47.125 102.25 -48.91015625 100.359375 C-51.37242278 97.77006278 -53.09493785 96.37323543 -56.72070312 95.93945312 C-66.01740054 96.02844512 -75.06132081 96.99796122 -84.25 98.3125 C-85.02024506 98.41960297 -85.79049011 98.52670593 -86.58407593 98.63705444 C-96.62650891 100.0563134 -105.75250327 102.0313295 -115.140625 105.99194336 C-123.86646832 109.59746997 -133.17807007 109.81111674 -142.03125 106.29296875 C-148.2508491 103.19477293 -154.22999806 99.82954987 -157.125 93.25 C-157.60219563 88.47804373 -157.15917472 86.54633078 -154.16796875 82.796875 C-149.34342057 77.84316568 -144.09546633 73.42141685 -138.62890625 69.1953125 C-136.92252211 67.86960376 -135.24335868 66.50828019 -133.58984375 65.1171875 C-132.75582031 64.41851562 -131.92179688 63.71984375 -131.0625 63 C-130.32902344 62.37609375 -129.59554687 61.7521875 -128.83984375 61.109375 C-120.65435609 55.50319928 -112.00776515 54.12026608 -102.35913086 52.81201172 C-100.06197473 52.49992864 -97.7684311 52.16766468 -95.47460938 51.83203125 C-93.99235544 51.62121166 -92.5099381 51.41153712 -91.02734375 51.203125 C-90.35315903 51.10630432 -89.6789743 51.00948364 -88.98435974 50.909729 C-84.315193 50.28440481 -79.82270115 50.1701839 -75.125 50.25 C-75.125 49.59 -75.125 48.93 -75.125 48.25 C-85.74125184 47.33508101 -96.28709107 47.00807492 -106.9375 47 C-107.74858215 46.99932526 -108.55966431 46.99865051 -109.39532471 46.99795532 C-122.36375927 47.01496258 -135.00523938 47.72966112 -147.83447266 49.74511719 C-150.9328078 50.22051095 -154.03516163 50.64907076 -157.14202881 51.06455994 C-159.96681463 51.44703133 -162.78795338 51.85274211 -165.60870361 52.26382446 C-166.97372164 52.45994636 -168.3397362 52.64927622 -169.70672607 52.83114624 C-177.71365377 53.91125273 -184.63370013 54.92626622 -190.125 61.25 C-192.47146084 64.66333045 -194.33693335 68.23636669 -196.1875 71.9375 C-197.30803945 74.09081079 -198.43051193 76.24311653 -199.5546875 78.39453125 C-200.13444336 79.51553223 -200.71419922 80.6365332 -201.31152344 81.79150391 C-204.37209584 87.62834675 -207.59564308 93.37326795 -210.8125 99.125 C-212.07965885 101.39961048 -213.34659135 103.67434708 -214.61328125 105.94921875 C-215.21221191 107.02349121 -215.81114258 108.09776367 -216.42822266 109.20458984 C-217.9484065 111.93304644 -219.46555889 114.6631439 -220.98046875 117.39453125 C-221.40714844 118.1630542 -221.83382812 118.93157715 -222.2734375 119.72338867 C-223.07696153 121.1738583 -223.87784436 122.62579497 -224.67578125 124.0793457 C-226.63280927 127.63186745 -228.64613464 131.12989439 -230.76953125 134.5859375 C-231.19637207 135.29661377 -231.62321289 136.00729004 -232.06298828 136.73950195 C-232.86354056 138.06765541 -233.68209045 139.38522356 -234.52294922 140.68823242 C-238.73504288 147.75303634 -236.46643767 154.45594708 -234.5625 162.0625 C-233.65572995 165.69391882 -233.125 168.47947372 -233.125 172.25 C-232.37734375 171.75628906 -231.6296875 171.26257813 -230.859375 170.75390625 C-229.87453125 170.11324219 -228.8896875 169.47257813 -227.875 168.8125 C-226.41320312 167.85537109 -226.41320312 167.85537109 -224.921875 166.87890625 C-219.58620223 163.77139851 -214.19628605 163.61091726 -208.125 164.25 C-202.8488347 165.76792624 -198.96399969 168.53745101 -196.04296875 173.203125 C-193.93722697 177.89848113 -193.32260849 182.487828 -194.76953125 187.46875 C-197.81870108 193.77265168 -202.98480808 198.40343156 -207.9921875 203.16015625 C-210.9405472 205.99651748 -213.60141789 209.03296724 -216.27294922 212.12866211 C-219.50921092 215.83547439 -222.88083737 219.41429383 -226.25 223 C-226.93964844 223.74121094 -227.62929687 224.48242188 -228.33984375 225.24609375 C-238.46133142 236.02557489 -238.46133142 236.02557489 -243.953125 236.48828125 C-255.40225564 236.73660714 -255.40225564 236.73660714 -260.125 232.25 C-264.7582385 227.38827303 -266.59594838 223.45034962 -266.4453125 216.7578125 C-265.2293603 207.23779648 -258.00501689 200.28257776 -251.8671875 193.44921875 C-247.68726133 188.81827948 -247.68726133 188.81827948 -245.9453125 182.99609375 C-246.28752607 180.40316787 -246.68692738 177.82857381 -247.125 175.25 C-247.23199219 174.21359375 -247.33898437 173.1771875 -247.44921875 172.109375 C-247.95981734 168.79252656 -248.57597572 166.23198335 -250.125 163.25 C-252.77343651 161.46242296 -255.31276649 160.62657818 -258.3515625 159.640625 C-263.08221413 158.049243 -267.22717224 155.47948124 -271.5 152.9375 C-272.31299561 152.45780762 -273.12599121 151.97811523 -273.96362305 151.48388672 C-275.58245953 150.52786693 -277.20023516 149.57004832 -278.81689453 148.61035156 C-283.22400433 146.0128885 -287.68880585 143.51669658 -292.14453125 141.00390625 C-293.12808594 140.42511719 -294.11164063 139.84632813 -295.125 139.25 C-296.24261719 138.68152344 -297.36023438 138.11304688 -298.51171875 137.52734375 C-301.125 135.25 -301.125 135.25 -301.859375 131.8203125 C-301.34890561 125.46291503 -298.11377926 119.77341956 -295.375 114.125 C-294.78161745 112.87736674 -294.18876946 111.62947911 -293.59643555 110.38134766 C-288.61334616 99.95943386 -283.19282804 89.79300382 -277.51855469 79.73144531 C-276.17442066 77.33800133 -274.85274446 74.93370564 -273.5390625 72.5234375 C-248.81578892 27.25956282 -248.81578892 27.25956282 -234.125 13.25 C-233.5475 12.65058594 -232.97 12.05117187 -232.375 11.43359375 C-228.88355022 9.59694569 -225.76094971 10.1419831 -222.125 11.25 C-219.61807068 12.59785624 -217.53392181 14.27983479 -215.375 16.125 C-214.77864746 16.61315186 -214.18229492 17.10130371 -213.56787109 17.60424805 C-208.98719721 21.39718207 -204.61389759 25.41003422 -200.25195312 29.44995117 C-196.13104333 33.2704645 -196.13104333 33.2704645 -191.875 36.9375 C-191.33359375 37.39511719 -190.7921875 37.85273437 -190.234375 38.32421875 C-183.20764723 41.4081715 -173.91311415 38.27150781 -166.75 36.9375 C-129.21633501 30.30047819 -83.77189471 23.17574918 -49.25390625 43.98046875 C-47.06884745 45.48916801 -47.06884745 45.48916801 -43.875 45.5625 C-35.50942712 42.63454949 -30.40263937 33.42262982 -25.22094727 26.58129883 C-21.50835045 21.69127642 -17.64979776 16.92915565 -13.75 12.1875 C-13.15485596 11.46103271 -12.55971191 10.73456543 -11.9465332 9.98608398 C-3.96563956 0.31725117 -3.96563956 0.31725117 0 0 Z " fill="#FDFDFF" transform="translate(353.125,78.75)"/>
<path d="M0 0 C4.69281157 0.85702503 7.07616871 3.78334846 10.25 7.125 C14.50706466 11.52340783 18.75554617 15.68496007 23.609375 19.4375 C25.55547677 21.6241312 25.8833308 23.08326993 26 26 C24.83984375 28.41796875 24.83984375 28.41796875 22.9375 31.1875 C18.58455605 37.80273738 14.84680015 44.70141173 11.125 51.6875 C9.89613794 53.98714196 8.66697424 56.28662277 7.4375 58.5859375 C6.84710938 59.6903418 6.25671875 60.79474609 5.6484375 61.93261719 C3.13980969 66.60062664 0.56720898 71.23131572 -2.01757812 75.85742188 C-4.7031765 80.66529799 -7.37287094 85.48170833 -10.03125 90.3046875 C-10.38776642 90.95146957 -10.74428284 91.59825165 -11.11160278 92.26463318 C-12.5525532 94.87925802 -13.99321411 97.49404159 -15.43304443 100.10928345 C-22.4722913 112.89435033 -22.4722913 112.89435033 -26 119 C-29.80348249 118.31864275 -32.69140088 116.59415623 -36.0078125 114.65625 C-36.57450653 114.32709595 -37.14120056 113.99794189 -37.72506714 113.65881348 C-39.52777589 112.6104821 -41.32645159 111.55545 -43.125 110.5 C-44.9315397 109.44606503 -46.73886812 108.39349401 -48.5463562 107.34118652 C-50.1820993 106.38787565 -51.81595034 105.4313205 -53.44970703 104.47460938 C-54.94438764 103.61036748 -56.45572433 102.77213784 -58 102 C-56.00656499 95.680782 -53.15627585 89.97148913 -50.1875 84.0625 C-49.61290039 82.91604004 -49.03830078 81.76958008 -48.44628906 80.58837891 C-43.11100541 70.04415066 -37.35563351 59.76343775 -31.44873047 49.53027344 C-30.12119434 47.2116714 -28.82070185 44.88114104 -27.53515625 42.5390625 C-22.48790213 33.34857259 -16.94337973 24.63500386 -11 16 C-9.97379698 14.50141256 -8.94776059 13.00271101 -7.921875 11.50390625 C-5.28953659 7.66351403 -2.64732938 3.8300716 0 0 Z " fill="#635AFF" transform="translate(126,105)"/>
<path d="M0 0 C4.8691494 0.4542117 7.84859204 2.86940191 11.5 5.875 C12.10948486 6.36532715 12.71896973 6.8556543 13.34692383 7.36083984 C18.61180704 11.61923125 23.78061741 15.9927662 28.92578125 20.39453125 C31.69699155 22.75864187 34.52927189 25.03843958 37.375 27.3125 C43.37157696 32.18526752 48.94533684 37.48294683 54.56640625 42.77734375 C58.29413657 46.28667976 62.09661188 49.68716138 66 53 C66.52432617 53.44537109 67.04865234 53.89074219 67.58886719 54.34960938 C71.38644898 57.57369584 75.19117484 60.78920684 79 64 C75.59243626 68.80553861 72.03661726 73.11346212 67.796875 77.203125 C65.26383914 79.73616086 62.97554331 82.45877886 60.67578125 85.203125 C58.92842764 87.07674426 57.0894138 88.52511967 55 90 C54.11699219 89.23816406 53.23398437 88.47632813 52.32421875 87.69140625 C45.86962842 82.13396509 39.38020923 76.63662811 32.765625 71.26953125 C29.70632264 68.75900205 26.69687068 66.19487558 23.6875 63.625 C19.25154232 59.84202793 14.73412773 56.19448459 10.125 52.625 C4.33527847 48.13829035 -1.20629071 43.41232538 -6.71264648 38.58374023 C-11.33866889 34.53773336 -16.07055556 30.67370521 -21 27 C-19.2787229 22.77504711 -16.28984893 19.68907196 -13.3125 16.3125 C-8.69258139 11.00583673 -4.22821032 5.62768838 0 0 Z " fill="#635AFF" transform="translate(352,98)"/>
<path d="M0 0 C5.37260136 2.38782283 9.05125335 6.00094421 11.69921875 11.296875 C12.30801472 17.38483473 11.04334448 21.33462391 7.69921875 26.296875 C5.58586734 28.83289669 3.3804225 31.24969652 1.125 33.66015625 C-1.29832351 36.29420355 -3.55611842 39.00971923 -5.80078125 41.796875 C-8.70891505 45.3916515 -11.68619457 48.87948128 -14.80078125 52.296875 C-17.97257974 55.77865729 -21.01384616 59.33234666 -23.98828125 62.984375 C-24.73464844 63.89832031 -25.48101562 64.81226563 -26.25 65.75390625 C-27.47935072 67.27830115 -28.69518076 68.81397658 -29.8828125 70.37109375 C-34.10228169 75.72970339 -39.03440957 79.42375708 -45.8203125 80.8125 C-51.60196628 81.2032723 -55.23992462 79.8447933 -59.60546875 76.0625 C-63.40683752 72.10347078 -65.50024206 68.40507841 -65.73828125 62.796875 C-65.22837238 53.63396721 -60.0144916 48.03352382 -54.30078125 41.296875 C-53.86056641 40.77174316 -53.42035156 40.24661133 -52.96679688 39.70556641 C-46.78223108 32.32850937 -40.4122065 25.15394962 -33.81469727 18.14355469 C-30.9549599 15.10229483 -28.20525782 12.02148165 -25.55078125 8.796875 C-18.4295306 0.69819779 -10.79207441 -3.29808726 0 0 Z " fill="#FDFDFF" transform="translate(207.30078125,299.703125)"/>
<path d="M0 0 C3.52190956 2.57370314 5.84773481 4.8021006 7.625 8.875 C8.5999901 16.2585188 8.23650987 20.85860674 3.625 26.875 C2.05668595 28.69813224 0.45127354 30.48993141 -1.1875 32.25 C-2.07308594 33.21035156 -2.95867187 34.17070312 -3.87109375 35.16015625 C-4.69738281 36.05605469 -5.52367187 36.95195312 -6.375 37.875 C-9.66680377 41.55576965 -12.88619245 45.29774035 -16.0859375 49.05859375 C-40.17361017 77.34517946 -40.17361017 77.34517946 -45.375 78.875 C-51.47535633 78.64906088 -55.48115424 76.78483386 -59.7890625 72.453125 C-63.34321747 68.42092579 -65.01789839 65.06224738 -65.875 59.8125 C-63.72978787 42.91895446 -47.36849204 28.52740075 -36.18359375 16.8828125 C-33.86567365 14.46585556 -31.59922319 12.02641536 -29.41015625 9.4921875 C-21.59107844 0.45627324 -12.03645177 -6.91312936 0 0 Z " fill="#FDFDFF" transform="translate(179.375,273.125)"/>
</svg>
