<?xml version="1.0" encoding="UTF-8"?>
<svg version="1.1" xmlns="http://www.w3.org/2000/svg" width="500" height="500">
<path d="M0 0 C4.99561419 0.13958003 7.42873924 2.34930399 10.9140625 5.703125 C12.13623916 6.8143298 13.35890923 7.92499211 14.58203125 9.03515625 C15.19739746 9.60572754 15.81276367 10.17629883 16.44677734 10.76416016 C19.30624082 13.38565079 22.26746689 15.88297364 25.2265625 18.390625 C30.73331568 23.10187246 36.21051176 27.84685625 41.68334961 32.59741211 C45.87223859 36.23132343 50.07532986 39.84806245 54.2890625 43.453125 C60.36935503 48.65611451 66.42254878 53.88966979 72.46484375 59.13671875 C75.10270296 61.42686325 77.74661002 63.70977916 80.39453125 65.98828125 C81.06750244 66.56843994 81.74047363 67.14859863 82.43383789 67.74633789 C83.71424195 68.84993853 84.99589681 69.95209039 86.27905273 71.05249023 C87.42989868 72.04567299 88.57456226 73.04607992 89.71191406 74.0546875 C91.19813553 75.37250121 92.70777906 76.66376313 94.21875 77.953125 C96.2890625 80.453125 96.2890625 80.453125 96.8359375 83.4453125 C95.20178001 92.43317872 84.45985331 100.3940981 78.09375 106.66796875 C75.77235017 108.97320284 73.49311644 111.28623324 71.2890625 113.703125 C70.7940625 114.24453125 70.2990625 114.7859375 69.7890625 115.34375 C65.60751399 121.22405259 63.655037 127.17546579 62.3515625 134.203125 C59.92980394 146.01071008 55.2691776 156.01361136 49.2890625 166.453125 C50.02511719 167.01 50.76117188 167.566875 51.51953125 168.140625 C64.66185696 178.41837509 64.66185696 178.41837509 65.71875 186.90234375 C66.13066642 198.88426543 63.38786215 208.52871956 55.2890625 217.453125 C54.79921875 217.99710938 54.309375 218.54109375 53.8046875 219.1015625 C50.07646973 222.73749765 46.48002556 224.15336846 41.5390625 225.765625 C37.18814715 227.21536421 37.18814715 227.21536421 33.9609375 230.23828125 C33.19269027 232.62788747 32.74340143 234.9837409 32.2890625 237.453125 C28.58604836 250.78987712 23.82523305 261.29764302 11.5859375 268.91796875 C7.7151368 271.50508554 5.62962939 273.15500007 4.41796875 277.7734375 C4.23105469 279.02898437 4.04414063 280.28453125 3.8515625 281.578125 C2.28634805 290.73185435 -0.47869162 298.305716 -7.7109375 304.453125 C-8.4534375 305.154375 -9.1959375 305.855625 -9.9609375 306.578125 C-14.65490716 309.77855886 -19.846497 311.23560694 -25.4609375 311.890625 C-30.17351396 314.15628676 -30.53675434 317.46120722 -32.28515625 322.2109375 C-36.66655798 332.174125 -45.70380161 338.72551506 -55.62109375 342.5859375 C-58.8555455 343.4937103 -61.60582975 343.78680594 -64.9609375 343.828125 C-65.99734375 343.85648437 -67.03375 343.88484375 -68.1015625 343.9140625 C-76.94579727 342.78460395 -83.73011113 338.43669949 -90.6484375 333.078125 C-92.30315878 331.827825 -93.95811372 330.57783418 -95.61328125 329.328125 C-96.4522998 328.68875 -97.29131836 328.049375 -98.15576172 327.390625 C-102.30811433 324.24204194 -106.51073833 321.16241029 -110.7109375 318.078125 C-112.28001337 316.92196383 -113.84902606 315.76571689 -115.41796875 314.609375 C-120.50012789 310.86922876 -125.59881548 307.15223352 -130.7109375 303.453125 C-134.05286249 304.86561617 -135.78659125 306.49870134 -138.0234375 309.328125 C-142.3355359 314.38337228 -145.99934245 316.79709394 -152.5859375 318.390625 C-157.3750888 318.74263225 -161.5200794 317.79970565 -165.7109375 315.453125 C-170.78999047 310.8867241 -173.77109333 306.75567071 -174.2109375 299.828125 C-174.11670364 293.31656545 -171.00794535 290.04938875 -166.7109375 285.453125 C-165.9271875 284.58816406 -165.1434375 283.72320312 -164.3359375 282.83203125 C-162.64353679 280.96774609 -160.94409193 279.10983552 -159.23828125 277.2578125 C-156.87179521 274.63163479 -154.6208427 271.95156739 -152.3984375 269.203125 C-148.64255059 264.57019498 -144.83154386 259.99036305 -140.9609375 255.453125 C-140.14629028 254.48197754 -140.14629028 254.48197754 -139.31518555 253.49121094 C-134.87173431 248.31503753 -130.99354698 245.03477009 -123.89453125 244.390625 C-118.44037568 244.54673679 -114.04857775 246.37719698 -109.8359375 249.765625 C-105.58250388 255.14496752 -104.37737855 259.1432559 -104.3125 265.890625 C-105.45957781 273.26790973 -110.78297704 278.2089471 -115.59179688 283.50585938 C-116.11966797 284.10076172 -116.64753906 284.69566406 -117.19140625 285.30859375 C-117.67504639 285.84121826 -118.15868652 286.37384277 -118.65698242 286.92260742 C-119.99451686 288.55521141 -119.99451686 288.55521141 -119.7109375 291.453125 C-118.11106657 293.08360851 -118.11106657 293.08360851 -115.93359375 294.60546875 C-115.11834229 295.21116699 -114.30309082 295.81686523 -113.46313477 296.44091797 C-112.57553467 297.08432129 -111.68793457 297.72772461 -110.7734375 298.390625 C-109.86843506 299.05723145 -108.96343262 299.72383789 -108.03100586 300.41064453 C-100.96032957 305.59898461 -93.83269744 310.70904365 -86.62890625 315.7109375 C-84.05651048 317.49751662 -81.52232499 319.32297313 -79.01171875 321.1953125 C-78.43091553 321.62021973 -77.8501123 322.04512695 -77.25170898 322.48291016 C-75.70740032 323.61415077 -74.17353801 324.7596148 -72.640625 325.90625 C-68.99119196 327.83315065 -66.79370099 327.91130179 -62.7109375 327.453125 C-55.20366055 324.89765541 -49.34630379 321.59850011 -45.7109375 314.453125 C-43.96171179 311.12523594 -43.96171179 311.12523594 -44.7109375 307.453125 C-47.60794494 303.9257502 -51.12194021 301.24904798 -54.7109375 298.453125 C-55.78582464 297.59979959 -56.86002919 296.74561375 -57.93359375 295.890625 C-60.25287667 294.05307822 -62.58406416 292.23186874 -64.921875 290.41796875 C-69.67454379 286.71826407 -74.33706162 282.90912154 -79.0012207 279.09887695 C-83.55175659 275.38364032 -88.14443716 271.72912957 -92.79296875 268.13671875 C-96.15027083 265.18967761 -97.61118059 263.40081561 -98.0859375 258.890625 C-97.7109375 255.453125 -97.7109375 255.453125 -96.5859375 253.515625 C-93.71839751 251.89068567 -91.98344128 252.02090752 -88.7109375 252.453125 C-82.4130906 254.86660909 -77.47550044 258.80078102 -72.3984375 263.140625 C-70.89984547 264.39856365 -69.4011476 265.65637623 -67.90234375 266.9140625 C-67.18320801 267.52217773 -66.46407227 268.13029297 -65.72314453 268.75683594 C-63.11618928 270.95449732 -60.47979314 273.1124994 -57.8359375 275.265625 C-55.1840388 277.42732424 -52.54002096 279.59587373 -49.9140625 281.7890625 C-38.72438566 291.93484936 -38.72438566 291.93484936 -24.7109375 295.453125 C-20.06752432 294.14583866 -16.79731572 292.17956849 -14.2734375 288.015625 C-11.98120121 282.78932625 -10.58330581 277.1740454 -11.7109375 271.453125 C-14.51387314 266.34310473 -18.04763278 263.23239364 -22.5859375 259.765625 C-23.24795166 259.24798584 -23.90996582 258.73034668 -24.59204102 258.19702148 C-26.62597791 256.60824266 -28.668254 255.03063307 -30.7109375 253.453125 C-33.02706298 251.64523435 -35.33811633 249.8309249 -37.6484375 248.015625 C-38.48906738 247.35566528 -38.48906738 247.35566528 -39.34667969 246.68237305 C-44.02716913 243.00267226 -48.69255619 239.30455603 -53.3359375 235.578125 C-54.01132568 235.0426001 -54.68671387 234.5070752 -55.38256836 233.95532227 C-64.40411332 226.67760029 -64.40411332 226.67760029 -65.2109375 220.828125 C-64.7109375 217.453125 -64.7109375 217.453125 -63.1484375 215.515625 C-59.69541542 214.01046153 -57.47144683 214.03016383 -53.7109375 214.453125 C-50.89202092 216.05288911 -48.5657107 218.11906724 -46.1484375 220.265625 C-44.7314373 221.47119143 -43.31345132 222.67560005 -41.89453125 223.87890625 C-41.19054199 224.48428223 -40.48655273 225.0896582 -39.76123047 225.71337891 C-36.81221928 228.21571919 -33.76959373 230.58715278 -30.7109375 232.953125 C-24.80265234 237.55594262 -18.98971807 242.26998821 -13.21484375 247.0390625 C-6.48649964 252.94092008 -6.48649964 252.94092008 1.6640625 255.890625 C8.39547512 253.22127172 12.22851234 246.1087151 15.2265625 239.703125 C17.39192472 233.17529906 17.39192472 233.17529906 16.1953125 226.59375 C13.90567603 222.82148007 11.31174401 220.51621712 7.9140625 217.765625 C7.294104 217.24943604 6.67414551 216.73324707 6.03540039 216.20141602 C4.75131246 215.13262036 3.46393335 214.06776682 2.17333984 213.00683594 C-0.66747914 210.66439334 -3.46863651 208.27595222 -6.2734375 205.890625 C-9.58048951 203.08626922 -12.89726361 200.29509101 -16.23828125 197.53125 C-16.81956787 197.0472876 -17.40085449 196.5633252 -17.99975586 196.06469727 C-19.09974162 195.14927182 -20.20315577 194.23794194 -21.31079102 193.33178711 C-24.93602623 190.3054382 -27.92317853 187.24630523 -30.7109375 183.453125 C-31.0234375 179.578125 -31.0234375 179.578125 -30.7109375 176.453125 C-27.69336377 174.65695016 -25.43688666 173.48538941 -21.8984375 173.328125 C-17.02074676 175.04966291 -13.62109882 178.12351165 -9.7109375 181.453125 C-9.17871582 181.90187988 -8.64649414 182.35063477 -8.09814453 182.81298828 C-2.15323632 187.82674604 3.72224554 192.90859477 9.4765625 198.140625 C18.60120751 207.42629346 18.60120751 207.42629346 29.8515625 212.890625 C34.29450524 212.32515956 36.77732461 210.3801161 40.3359375 207.765625 C42.2890625 206.453125 42.2890625 206.453125 44.2890625 206.453125 C44.5571875 205.89625 44.8253125 205.339375 45.1015625 204.765625 C46.2890625 202.453125 46.2890625 202.453125 47.9140625 200.203125 C49.75257332 196.52610335 50.16769617 193.42543518 49.2890625 189.453125 C44.82171845 180.58851288 35.51814156 174.23105473 27.9765625 168.140625 C23.16240662 164.24991792 18.63981916 160.12312034 14.12573242 155.89526367 C10.77842007 152.77787774 7.35919462 149.81753333 3.7890625 146.953125 C-0.97202228 143.13318489 -5.42366775 139.06373681 -9.875 134.89453125 C-13.22210619 131.77743946 -16.64107891 128.81731387 -20.2109375 125.953125 C-24.37761693 122.6100915 -28.31499872 119.10184793 -32.2109375 115.453125 C-37.84411023 110.18079608 -43.66866873 105.25595402 -49.7109375 100.453125 C-50.4328125 99.710625 -51.1546875 98.968125 -51.8984375 98.203125 C-59.6774292 93.3628635 -72.2044799 97.33168936 -80.82177734 98.68701172 C-83.3072342 99.07365979 -85.795601 99.4337988 -88.28515625 99.79296875 C-97.81349758 101.23734486 -106.40256498 103.46155459 -115.30615234 107.16162109 C-124.67605137 110.71581339 -133.54384771 110.13928912 -142.7109375 106.453125 C-148.6763006 103.54758177 -153.89412549 100.72693357 -156.7109375 94.453125 C-157.28261113 90.45140957 -157.08032378 88.22547814 -155.3359375 84.578125 C-149.09641871 76.32444576 -139.79849687 69.78459689 -131.7109375 63.453125 C-130.97230469 62.87304688 -130.23367187 62.29296875 -129.47265625 61.6953125 C-118.76831028 53.90677558 -105.67939023 52.61889686 -92.8984375 51.203125 C-91.41588521 51.02975745 -89.9334618 50.8552841 -88.45117188 50.6796875 C-84.87248286 50.25812749 -81.29230477 49.85137483 -77.7109375 49.453125 C-107.26955412 45.0257104 -136.2099702 48.41101264 -165.5234375 52.953125 C-166.19387085 53.05458832 -166.8643042 53.15605164 -167.55505371 53.2605896 C-169.46941023 53.55332804 -171.38125929 53.86232111 -173.29296875 54.171875 C-174.93616089 54.43387695 -174.93616089 54.43387695 -176.61254883 54.70117188 C-183.65266943 56.40975051 -187.68797368 59.65105027 -191.7109375 65.453125 C-193.89947694 69.20531923 -195.83972745 73.06471564 -197.7734375 76.953125 C-203.54580259 88.3035889 -209.67871325 99.39323941 -215.99902344 110.4453125 C-219.12108286 115.93073351 -222.19486873 121.44321635 -225.2734375 126.953125 C-226.42030238 129.00535954 -227.56742196 131.05745178 -228.71484375 133.109375 C-229.23062988 134.04007813 -229.74641602 134.97078125 -230.27783203 135.9296875 C-231.15014528 137.46567213 -232.0506848 138.98662739 -232.99951172 140.4765625 C-236.41750625 145.87102997 -236.1813769 149.89371063 -235.0546875 156.0234375 C-234.77625 157.19648438 -234.4978125 158.36953125 -234.2109375 159.578125 C-233.24992356 163.64463767 -232.52144831 167.26857212 -232.7109375 171.453125 C-231.7415625 170.875625 -230.7721875 170.298125 -229.7734375 169.703125 C-216.86729163 162.41739749 -216.86729163 162.41739749 -208.7109375 163.453125 C-202.53188792 165.42715029 -198.30202594 169.09755711 -194.7109375 174.453125 C-193.80690802 177.16521343 -193.51914626 178.95705249 -193.4609375 181.765625 C-193.43515625 182.50425781 -193.409375 183.24289062 -193.3828125 184.00390625 C-194.27244575 190.64438304 -198.69473803 194.92227716 -203.1484375 199.515625 C-204.41704894 200.84859462 -205.68527166 202.18193429 -206.953125 203.515625 C-207.58702148 204.17820312 -208.22091797 204.84078125 -208.87402344 205.5234375 C-211.54008745 208.32415121 -214.15724089 211.16843223 -216.7734375 214.015625 C-217.25377441 214.53374756 -217.73411133 215.05187012 -218.22900391 215.58569336 C-220.88578319 218.45259089 -223.50859491 221.34471679 -226.1015625 224.26953125 C-226.67253662 224.9049585 -227.24351074 225.54038574 -227.83178711 226.19506836 C-228.9255422 227.41257926 -230.010379 228.6381877 -231.08422852 229.87329102 C-235.62434724 234.89139368 -239.7574202 237.17183764 -246.6484375 237.828125 C-251.90028238 237.57416732 -256.57194592 236.41580057 -260.51171875 232.80078125 C-265.15447623 227.55967317 -266.16403082 223.37338419 -266.02734375 216.40234375 C-265.01533969 206.96946638 -258.36884299 200.37098413 -252.25708008 193.62988281 C-251.70173584 193.01725586 -251.1463916 192.40462891 -250.57421875 191.7734375 C-250.07188721 191.22961426 -249.56955566 190.68579102 -249.05200195 190.12548828 C-246.82131296 187.34372611 -245.6503888 185.39162983 -245.8828125 181.7890625 C-246.07359375 180.81195313 -246.264375 179.83484375 -246.4609375 178.828125 C-246.65945312 177.77882813 -246.85796875 176.72953125 -247.0625 175.6484375 C-247.27648437 174.59398437 -247.49046875 173.53953125 -247.7109375 172.453125 C-247.90429688 171.46054688 -248.09765625 170.46796875 -248.296875 169.4453125 C-248.75560982 167.1117484 -249.22671569 164.78151075 -249.7109375 162.453125 C-250.29359375 162.30617187 -250.87625 162.15921875 -251.4765625 162.0078125 C-265.30708487 158.22399034 -277.19714848 150.33232225 -289.29052734 142.86669922 C-291.70163547 141.41459865 -291.70163547 141.41459865 -294.29150391 140.21533203 C-300.39104024 137.26262113 -300.39104024 137.26262113 -301.9921875 133.2109375 C-301.62941251 128.36386061 -300.21936906 124.7201054 -298.2109375 120.328125 C-297.81221436 119.4306958 -297.41349121 118.5332666 -297.00268555 117.60864258 C-287.2902471 96.17473215 -275.83365828 75.60126348 -263.7109375 55.453125 C-263.21078125 54.6168457 -262.710625 53.78056641 -262.1953125 52.91894531 C-239.00423174 14.18921703 -239.00423174 14.18921703 -229.7109375 10.453125 C-226.00777529 9.69737761 -223.65344218 9.92364544 -220.33984375 11.78515625 C-213.26189207 16.78073879 -206.78287344 22.58324119 -200.2890625 28.3046875 C-199.69931641 28.82321289 -199.10957031 29.34173828 -198.50195312 29.87597656 C-197.27906284 30.95284015 -196.05913386 32.03307359 -194.84179688 33.11621094 C-194.23658203 33.64762695 -193.63136719 34.17904297 -193.0078125 34.7265625 C-192.46995117 35.20270996 -191.93208984 35.67885742 -191.37792969 36.16943359 C-187.98798263 38.77991128 -185.64490471 39.76610137 -181.3671875 39.23046875 C-180.48675781 39.1207373 -179.60632813 39.01100586 -178.69921875 38.89794922 C-171.60121715 37.84136761 -164.53603894 36.600468 -157.46875 35.35742188 C-141.69616766 32.65006625 -126.21012689 31.09594653 -110.19702148 31.13745117 C-107.6458925 31.14062817 -105.09591053 31.11695744 -102.54492188 31.09179688 C-88.76783486 31.03779344 -75.19216269 32.18288461 -62.2734375 37.328125 C-61.61931885 37.58134521 -60.9652002 37.83456543 -60.29125977 38.09545898 C-55.61964643 39.94508356 -51.26238512 42.17743797 -47.01953125 44.86328125 C-44.03020922 45.6270505 -42.12698338 44.87185951 -39.3996582 43.53833008 C-36.61680469 41.75001377 -34.9884103 39.44454872 -33.0859375 36.765625 C-32.23293214 35.59585594 -31.37733359 34.42797469 -30.51953125 33.26171875 C-30.0694873 32.64409668 -29.61944336 32.02647461 -29.15576172 31.39013672 C-26.59129358 27.95206808 -23.86609413 24.64549129 -21.1484375 21.328125 C-20.59873291 20.65483154 -20.04902832 19.98153809 -19.48266602 19.2878418 C-18.40358057 17.96667342 -17.32376523 16.64610081 -16.24316406 15.32617188 C-14.80996488 13.5741795 -13.38072093 11.81905914 -11.953125 10.0625 C-4.17601962 0.50991398 -4.17601962 0.50991398 0 0 Z M0.2890625 19.453125 C-6.88464641 27.65477391 -14.01368642 35.85393555 -20.7109375 44.453125 C-19.20372602 48.21694362 -17.06176819 50.03775982 -13.8984375 52.515625 C-12.91359375 53.299375 -11.92875 54.083125 -10.9140625 54.890625 C-10.12999023 55.51324219 -10.12999023 55.51324219 -9.33007812 56.1484375 C-6.5568326 58.38309132 -3.85663022 60.70295252 -1.1484375 63.015625 C3.40469961 66.88948759 8.02405082 70.65938188 12.7109375 74.37109375 C15.69873732 76.78396845 18.61952914 79.27119451 21.5390625 81.765625 C26.62401742 86.10427495 31.8216081 90.26966606 37.09716797 94.37353516 C42.9420985 98.93202165 48.62571025 103.67143015 54.2890625 108.453125 C59.87555496 103.85766603 64.81418585 98.88151425 69.7265625 93.578125 C70.45810547 92.794375 71.18964844 92.010625 71.94335938 91.203125 C73.72860628 89.28952701 75.51039923 87.37284033 77.2890625 85.453125 C75.4012444 81.25345409 72.54330763 78.88406883 69.0390625 76.015625 C63.86561334 71.6882377 58.83295648 67.25556119 53.9140625 62.640625 C49.11561943 58.14948105 44.29063534 53.71889849 39.2890625 49.453125 C38.33902344 48.63585937 37.38898438 47.81859375 36.41015625 46.9765625 C30.12501774 41.59508124 23.73191762 36.38800494 17.19140625 31.31982422 C13.27852496 28.27561143 9.54202079 25.1041127 5.9375 21.6953125 C4.06725092 20.28597789 2.55185923 19.95693946 0.2890625 19.453125 Z M-225.7109375 26.453125 C-242.89994673 48.41228991 -256.17090301 73.08705979 -269.3359375 97.578125 C-269.95782959 98.73401123 -270.57972168 99.88989746 -271.22045898 101.08081055 C-274.4251325 107.07008838 -277.58682425 113.08105224 -280.671875 119.1328125 C-281.25501465 120.27218262 -281.8381543 121.41155273 -282.43896484 122.58544922 C-283.9136673 125.38732929 -283.9136673 125.38732929 -283.7109375 128.453125 C-279.78297169 130.74003512 -275.85024125 133.01843273 -271.9128418 135.2890625 C-270.57393009 136.06277854 -269.23635279 136.83880855 -267.90014648 137.6171875 C-265.97985973 138.735275 -264.05493627 139.84496758 -262.12890625 140.953125 C-261.53192429 141.30310547 -260.93494232 141.65308594 -260.31987 142.01367188 C-257.54679702 143.59892578 -255.96451933 144.453125 -252.7109375 144.453125 C-250.31338263 140.12074195 -247.91773647 135.787308 -245.5234375 131.453125 C-245.16124115 130.79753601 -244.7990448 130.14194702 -244.4258728 129.4664917 C-239.58102758 120.69375104 -234.77663639 111.90095977 -230.0234375 103.078125 C-225.75092683 95.15583383 -221.39592765 87.28562399 -216.9609375 79.453125 C-216.15595825 78.02649536 -216.15595825 78.02649536 -215.3347168 76.57104492 C-212.88634912 72.24274126 -210.41382122 67.93462787 -207.859375 63.66796875 C-207.42979492 62.93900391 -207.00021484 62.21003906 -206.55761719 61.45898438 C-205.77281867 60.13028473 -204.97499009 58.80914863 -204.16113281 57.49804688 C-202.46431775 54.60338594 -201.71068163 52.66089419 -201.71484375 49.28125 C-202.91710419 45.86777329 -204.2421654 44.55895462 -207.0234375 42.265625 C-207.91546875 41.51023437 -208.8075 40.75484375 -209.7265625 39.9765625 C-210.71140625 39.14382812 -211.69625 38.31109375 -212.7109375 37.453125 C-215.45337254 34.96522734 -218.15563504 32.43389585 -220.86254883 29.9074707 C-222.97136231 27.51006459 -222.97136231 27.51006459 -225.7109375 26.453125 Z " fill="#665EFB" transform="translate(352.7109375,78.546875)"/>
<path d="M0 0 C4.34284226 3.49315573 7.28901251 6.61855356 8.18359375 12.2578125 C8.89404446 24.27088811 -2.02152741 32.9910658 -9.43017578 41.38378906 C-12.04330468 44.35753125 -14.61564232 47.36557816 -17.1875 50.375 C-17.91912354 51.22723145 -17.91912354 51.22723145 -18.66552734 52.09667969 C-21.21530059 55.06818829 -23.74863787 58.05206562 -26.26171875 61.0546875 C-41.38633969 79.06411996 -41.38633969 79.06411996 -50.125 80.3125 C-55.48976193 80.47216553 -59.38529755 79.171304 -63.5859375 75.82421875 C-67.66664683 71.81600933 -69.81312868 67.16381994 -70.19921875 61.39453125 C-69.85638263 51.77707581 -63.57849545 45.56081601 -57.44824219 38.77832031 C-55.76962086 36.91882908 -54.1359286 35.02206274 -52.5 33.125 C-47.63865882 27.60390538 -42.69578625 22.15523719 -37.76171875 16.69921875 C-36.61123047 15.42498047 -36.61123047 15.42498047 -35.4375 14.125 C-34.69371094 13.30386719 -33.94992188 12.48273438 -33.18359375 11.63671875 C-31.39106145 9.61289196 -29.69314842 7.54383052 -28 5.4375 C-21.09682104 -2.4545127 -9.67579243 -5.13110204 0 0 Z " fill="#645CFC" transform="translate(211.125,300.6875)"/>
<path d="M0 0 C4.11557976 3.25816731 7.36995613 7.01962712 8 12.375 C8.57052274 19.33537747 7.08546841 23.64289904 2.59741211 29.0715332 C1.03301787 30.78815785 -0.56716219 32.46112507 -2.1875 34.125 C-6.12533204 38.26016215 -9.93680756 42.40613527 -13.5 46.875 C-17.54934305 51.93294326 -21.89201839 56.65458874 -26.32617188 61.37255859 C-29.28936071 64.52598766 -32.19113427 67.70663559 -35 71 C-37.92777519 74.39273204 -40.95272293 77.35136147 -45 79.375 C-51.00914122 79.43509141 -55.31348251 78.29859604 -60 74.375 C-64.60235007 69.38912076 -66.62454529 64.73019466 -66.43359375 57.95703125 C-64.74307639 47.89007649 -57.56130222 39.76326568 -51 32.375 C-49.88044922 31.10849609 -49.88044922 31.10849609 -48.73828125 29.81640625 C-46.50784454 27.32127548 -44.25629972 24.846745 -42 22.375 C-40.49870445 20.70950024 -38.99870578 19.04283056 -37.5 17.375 C-36.75878906 16.55773437 -36.01757812 15.74046875 -35.25390625 14.8984375 C-33.71546247 13.17602038 -32.20330065 11.42985582 -30.71484375 9.6640625 C-22.80343159 0.40920299 -12.41962236 -6.35670994 0 0 Z " fill="#645BFC" transform="translate(180,272.625)"/>
<path d="M0 0 C3.74159485 0.79241555 6.00285572 3.09667644 8.6965332 5.6887207 C9.91870986 6.7999255 11.14137994 7.91058781 12.36450195 9.02075195 C12.97986816 9.59132324 13.59523438 10.16189453 14.22924805 10.74975586 C17.08871153 13.3712465 20.0499376 15.86856934 23.0090332 18.3762207 C28.50473887 23.07801658 33.97106766 27.81334282 39.43286133 32.55444336 C45.95407163 38.21174726 52.51036186 43.82785769 59.0715332 49.4387207 C57.5865332 49.9337207 57.5865332 49.9337207 56.0715332 50.4387207 C56.0715332 51.0987207 56.0715332 51.7587207 56.0715332 52.4387207 C55.4115332 53.0162207 54.7515332 53.5937207 54.0715332 54.1887207 C51.74908751 56.34450818 51.74908751 56.34450818 51.8215332 59.6887207 C51.9040332 60.5962207 51.9865332 61.5037207 52.0715332 62.4387207 C53.3915332 62.4387207 54.7115332 62.4387207 56.0715332 62.4387207 C57.73950195 63.93481445 57.73950195 63.93481445 59.2590332 65.8762207 C59.76821289 66.51430664 60.27739258 67.15239258 60.80200195 67.80981445 C61.43041992 68.61612305 61.43041992 68.61612305 62.0715332 69.4387207 C62.4015332 69.7687207 62.7315332 70.0987207 63.0715332 70.4387207 C63.7315332 70.1087207 64.3915332 69.7787207 65.0715332 69.4387207 C66.0615332 71.4187207 67.0515332 73.3987207 68.0715332 75.4387207 C64.11123995 75.4387207 63.35996735 74.1782616 60.5090332 71.5012207 C59.62344727 70.68008789 58.73786133 69.85895508 57.82543945 69.01293945 C56.91665039 68.16344727 56.00786133 67.31395508 55.0715332 66.4387207 C53.36687415 64.89299227 51.6586494 63.35118517 49.9465332 61.8137207 C49.11508789 61.06606445 48.28364258 60.3184082 47.42700195 59.5480957 C36.89484043 50.11630926 26.1496749 40.9654406 14.97387695 32.30541992 C11.06099566 29.26120713 7.32449149 26.08970841 3.7199707 22.6809082 C1.84972162 21.27157359 0.33432993 20.94253516 -1.9284668 20.4387207 C-8.74628681 28.32466585 -15.49836771 36.23088834 -21.9284668 44.4387207 C-22.4234668 42.9537207 -22.4234668 42.9537207 -22.9284668 41.4387207 C-23.5884668 41.4387207 -24.2484668 41.4387207 -24.9284668 41.4387207 C-24.9284668 40.7787207 -24.9284668 40.1187207 -24.9284668 39.4387207 C-26.2484668 40.0987207 -27.5684668 40.7587207 -28.9284668 41.4387207 C-28.9284668 40.1187207 -28.9284668 38.7987207 -28.9284668 37.4387207 C-29.5884668 37.1087207 -30.2484668 36.7787207 -30.9284668 36.4387207 C-31.5884668 35.4487207 -32.2484668 34.4587207 -32.9284668 33.4387207 C-20.75029211 17.84610452 -20.75029211 17.84610452 -14.97924805 10.92700195 C-13.64629392 9.30968428 -12.34922441 7.66186898 -11.09643555 5.98168945 C-10.52538086 5.24563477 -9.95432617 4.50958008 -9.3659668 3.7512207 C-8.89030273 3.10797852 -8.41463867 2.46473633 -7.92456055 1.80200195 C-5.34318758 0.03898989 -3.08883238 -0.13999871 0 0 Z " fill="#6A62F8" transform="translate(354.928466796875,78.561279296875)"/>
<path d="M0 0 C0.33 0 0.66 0 1 0 C0.67 2.31 0.34 4.62 0 7 C-0.33 6.34 -0.66 5.68 -1 5 C-1.99 5.66 -2.98 6.32 -4 7 C-4 7.99 -4 8.98 -4 10 C-4.99 10 -5.98 10 -7 10 C-7.103125 10.763125 -7.20625 11.52625 -7.3125 12.3125 C-8.05600892 15.21894395 -8.84858032 16.03566029 -11 18 C-11 18.66 -11 19.32 -11 20 C-12.97290587 22.34869747 -14.00306862 23.00102287 -17 24 C-17.33 24.66 -17.66 25.32 -18 26 C-18.99 26.33 -19.98 26.66 -21 27 C-21.33 27.99 -21.66 28.98 -22 30 C-23.32 29.67 -24.64 29.34 -26 29 C-17.73070098 18.99246058 -9.18519375 9.18519375 0 0 Z " fill="#847BEF" transform="translate(150,282)"/>
<path d="M0 0 C1.10859375 0.00644531 2.2171875 0.01289062 3.359375 0.01953125 C4.50148437 0.03628906 5.64359375 0.05304688 6.8203125 0.0703125 C8.56828125 0.08384766 8.56828125 0.08384766 10.3515625 0.09765625 C13.21635827 0.12113818 16.08072785 0.15398109 18.9453125 0.1953125 C18.9453125 0.5253125 18.9453125 0.8553125 18.9453125 1.1953125 C18.25832275 1.26524414 17.57133301 1.33517578 16.86352539 1.40722656 C2.86143513 2.85095638 -11.0463359 4.50974054 -24.91772461 6.92480469 C-30.04812263 7.80086167 -34.84897684 8.40615832 -40.0546875 8.1953125 C-35.05991098 3.20053598 -25.32493644 3.59154529 -18.58984375 2.984375 C-17.45482422 2.87222656 -17.45482422 2.87222656 -16.296875 2.7578125 C-15.28923096 2.66693359 -15.28923096 2.66693359 -14.26123047 2.57421875 C-11.90332603 2.23355873 -11.90332603 2.23355873 -9.16796875 1.17236328 C-5.91644779 0.1519283 -3.39509891 -0.03500102 0 0 Z " fill="#837DE8" transform="translate(212.0546875,124.8046875)"/>
<path d="M0 0 C1.65 0 3.3 0 5 0 C5.061875 0.928125 5.061875 0.928125 5.125 1.875 C5.41375 2.57625 5.7025 3.2775 6 4 C8.99615946 5.3045656 8.99615946 5.3045656 12 6 C12.33 7.65 12.66 9.3 13 11 C14.32 11 15.64 11 17 11 C18.66796875 12.49609375 18.66796875 12.49609375 20.1875 14.4375 C20.69667969 15.07558594 21.20585937 15.71367187 21.73046875 16.37109375 C22.14941406 16.90863281 22.56835938 17.44617188 23 18 C23.33 18.33 23.66 18.66 24 19 C24.66 18.67 25.32 18.34 26 18 C26.99 19.98 27.98 21.96 29 24 C25.03970674 24 24.28843415 22.7395409 21.4375 20.0625 C20.55449219 19.24394531 19.67148437 18.42539063 18.76171875 17.58203125 C17.85035156 16.72996094 16.93898438 15.87789062 16 15 C14.2538815 13.41238713 12.50401774 11.82888132 10.75 10.25 C9.93273437 9.51265625 9.11546875 8.7753125 8.2734375 8.015625 C6.33811558 6.29977258 4.37766643 4.63598103 2.375 3 C1.59125 2.34 0.8075 1.68 0 1 C0 0.67 0 0.34 0 0 Z " fill="#8B84ED" transform="translate(394,130)"/>
<path d="M0 0 C2.83967231 0 5.23735711 0.40267181 8 1 C7.67 2.98 7.34 4.96 7 7 C6.34 7 5.68 7 5 7 C5 8.32 5 9.64 5 11 C3.35 11 1.7 11 0 11 C0 10.34 0 9.68 0 9 C-1.65 8.67 -3.3 8.34 -5 8 C-4.34 7.67 -3.68 7.34 -3 7 C-3 6.01 -3 5.02 -3 4 C-2.34 4 -1.68 4 -1 4 C-0.67 2.68 -0.34 1.36 0 0 Z " fill="#6159FB" transform="translate(394,287)"/>
<path d="M0 0 C0.33 0.66 0.66 1.32 1 2 C0 5 0 5 -3 7 C-3.515625 7.86625 -4.03125 8.7325 -4.5625 9.625 C-5.036875 10.40875 -5.51125 11.1925 -6 12 C-6.66 12 -7.32 12 -8 12 C-8.2475 12.556875 -8.495 13.11375 -8.75 13.6875 C-10.23870529 16.44160479 -11.88409972 18.69174514 -14 21 C-14.99 21 -15.98 21 -17 21 C-15.7070307 18.21142906 -14.29514531 15.97377331 -12.28515625 13.65234375 C-11.76373047 13.04712891 -11.24230469 12.44191406 -10.70507812 11.81835938 C-9.89200195 10.88733398 -9.89200195 10.88733398 -9.0625 9.9375 C-8.52431641 9.31294922 -7.98613281 8.68839844 -7.43164062 8.04492188 C-5.03140731 5.27177932 -2.61718518 2.57175297 0 0 Z " fill="#857BED" transform="translate(163,329)"/>
<path d="M0 0 C3.65186013 3.65186013 4.15851582 5.84948325 4.25 10.8125 C4.19512255 16.19049006 2.95690047 19.82566615 -0.6875 23.875 C-1.3371875 24.431875 -1.3371875 24.431875 -2 25 C-2 23.68 -2 22.36 -2 21 C-1.34 21 -0.68 21 0 21 C0.33 17.04 0.66 13.08 1 9 C0.34 9 -0.32 9 -1 9 C-0.67 6.03 -0.34 3.06 0 0 Z " fill="#7E77ED" transform="translate(244,331)"/>
<path d="M0 0 C0.33 0.99 0.66 1.98 1 3 C-0.8125 5.6875 -0.8125 5.6875 -3 8 C-3.66 8 -4.32 8 -5 8 C-5 11.96 -5 15.92 -5 20 C-4.34 20 -3.68 20 -3 20 C-3 20.99 -3 21.98 -3 23 C-1.68 23.66 -0.36 24.32 1 25 C0.34 25.99 -0.32 26.98 -1 28 C-5.68963955 22.58887744 -7.5 19.01105561 -7.5 11.71875 C-6.59970095 6.8233739 -3.34214644 3.52971588 0 0 Z " fill="#837AE9" transform="translate(186,364)"/>
<path d="M0 0 C1.98 0 3.96 0 6 0 C-1.21705035 4.8113669 -9.76842578 6.22291986 -18.2890625 4.55078125 C-20.20314565 4.07395135 -22.10331485 3.54191004 -24 3 C-24 2.67 -24 2.34 -24 2 C-16.08 2 -8.16 2 0 2 C0 1.34 0 0.68 0 0 Z " fill="#8E87EB" transform="translate(236,183)"/>
<path d="M0 0 C1.65 0.33 3.3 0.66 5 1 C5 3 5 3 3.6875 4.5625 C2 6 2 6 -1 7 C-1.33 7.66 -1.66 8.32 -2 9 C-2.99 9.33 -3.98 9.66 -5 10 C-5.33 10.99 -5.66 11.98 -6 13 C-7.32 12.67 -8.64 12.34 -10 12 C-6.7 8.04 -3.4 4.08 0 0 Z " fill="#7971EE" transform="translate(134,299)"/>
<path d="M0 0 C0.99 0 1.98 0 3 0 C2 3 2 3 0.22265625 4.0703125 C-0.49019531 4.41835938 -1.20304687 4.76640625 -1.9375 5.125 C-4.47347112 6.61941156 -5.74976614 7.42654741 -6.9375 10.1484375 C-7.42354097 12.43434894 -7.75216831 14.67710294 -8 17 C-8.20625 18.010625 -8.4125 19.02125 -8.625 20.0625 C-8.74875 20.701875 -8.8725 21.34125 -9 22 C-9.33 22 -9.66 22 -10 22 C-10.02717692 19.93757383 -10.0464758 17.87504297 -10.0625 15.8125 C-10.07410156 14.66394531 -10.08570313 13.51539063 -10.09765625 12.33203125 C-10.01192832 9.40699414 -9.67849023 6.83683709 -9 4 C-7.02 4 -5.04 4 -3 4 C-3 3.34 -3 2.68 -3 2 C-2.01 2 -1.02 2 0 2 C0 1.34 0 0.68 0 0 Z " fill="#8981EC" transform="translate(365,343)"/>
<path d="M0 0 C0.33 0 0.66 0 1 0 C1.1875829 5.06473839 0.62293079 9.2078408 -0.8125 14.0625 C-1.31716797 15.81240234 -1.31716797 15.81240234 -1.83203125 17.59765625 C-2.97001212 20.91264401 -4.35763503 23.90821265 -6 27 C-6.33 27 -6.66 27 -7 27 C-6.45018084 20.95198929 -5.09570426 15.69398894 -3 10 C-2.34 10 -1.68 10 -1 10 C-1.01160156 9.36191406 -1.02320313 8.72382813 -1.03515625 8.06640625 C-1.04417969 7.24011719 -1.05320312 6.41382813 -1.0625 5.5625 C-1.07410156 4.73878906 -1.08570313 3.91507813 -1.09765625 3.06640625 C-1 1 -1 1 0 0 Z " fill="#837CE9" transform="translate(414,207)"/>
<path d="M0 0 C-1.33333333 2.66666667 -2.66666667 5.33333333 -4 8 C-4.99 7.67 -5.98 7.34 -7 7 C-7.66 8.32 -8.32 9.64 -9 11 C-9.66 11 -10.32 11 -11 11 C-11 12.32 -11 13.64 -11 15 C-12.65 15.33 -14.3 15.66 -16 16 C-6.15384615 0 -6.15384615 0 0 0 Z " fill="#8B83EB" transform="translate(223,325)"/>
<path d="M0 0 C-2.78557784 2.78557784 -5.09784293 2.3669369 -8.90625 2.55859375 C-11.39017821 2.82722962 -11.39017821 2.82722962 -13 6 C-16.625 6.1875 -16.625 6.1875 -20 6 C-20 6.66 -20 7.32 -20 8 C-20.66 8 -21.32 8 -22 8 C-20.26904305 3.92111135 -18.43222396 2.60359656 -14.5078125 0.75 C-9.76087266 -0.66964556 -4.89995637 -0.29399738 0 0 Z " fill="#857FE6" transform="translate(176,271)"/>
<path d="M0 0 C2.77345388 1.15435648 5.38982972 2.51604532 8 4 C8 4.99 8 5.98 8 7 C7.01 6.67 6.02 6.34 5 6 C5 5.34 5 4.68 5 4 C1.37 3.67 -2.26 3.34 -6 3 C-6.33 5.64 -6.66 8.28 -7 11 C-6.34 11.33 -5.68 11.66 -5 12 C-5.99 12 -6.98 12 -8 12 C-9.52491998 8.95016004 -9.23562548 6.3576631 -9 3 C-6.8222569 -0.75055755 -4.04249079 -0.53391388 0 0 Z " fill="#8C86E7" transform="translate(264,331)"/>
<path d="M0 0 C1.65 0.33 3.3 0.66 5 1 C3.58707905 5.8274799 1.57025846 9.7162359 -1 14 C-2.0625 12.1875 -2.0625 12.1875 -3 10 C-2.67 9.01 -2.34 8.02 -2 7 C-2 6.01 -2 5.02 -2 4 C-1 1.8125 -1 1.8125 0 0 Z " fill="#7D78F0" transform="translate(140,171)"/>
<path d="M0 0 C2.475 0.99 2.475 0.99 5 2 C3.5019913 5.81311305 1.37351976 7.72483551 -2 10 C-4.8125 10.75 -4.8125 10.75 -7 11 C-7.33 10.34 -7.66 9.68 -8 9 C-7.38125 8.896875 -6.7625 8.79375 -6.125 8.6875 C-3.63473516 8.12474627 -3.63473516 8.12474627 -2 5 C-1.30686092 3.34416775 -0.63525576 1.67889021 0 0 Z " fill="#877EEE" transform="translate(117,304)"/>
<path d="M0 0 C0.33 0.66 0.66 1.32 1 2 C-0.23551244 5.70653731 -1.96665078 6.64915435 -5 9 C-5.33 9.66 -5.66 10.32 -6 11 C-6.66 11 -7.32 11 -8 11 C-8.33 11.66 -8.66 12.32 -9 13 C-10.65 13 -12.3 13 -14 13 C-9.55618306 8.41283413 -4.79771501 4.21237287 0 0 Z " fill="#7970EF" transform="translate(221,142)"/>
<path d="M0 0 C1.11181641 0.01289062 2.22363281 0.02578125 3.36914062 0.0390625 C5.09487305 0.08933594 5.09487305 0.08933594 6.85546875 0.140625 C8.02529297 0.15867187 9.19511719 0.17671875 10.40039062 0.1953125 C13.28208655 0.2423606 16.16210672 0.30808791 19.04296875 0.390625 C19.04296875 0.720625 19.04296875 1.050625 19.04296875 1.390625 C4.19296875 2.875625 4.19296875 2.875625 -10.95703125 4.390625 C-5.33203125 -0.109375 -5.33203125 -0.109375 0 0 Z " fill="#9189EA" transform="translate(211.95703125,124.609375)"/>
<path d="M0 0 C0.93423645 3.01031744 1.04449911 3.86650268 0 7 C0.165 7.804375 0.33 8.60875 0.5 9.4375 C1.02984558 12.1529586 0.73350725 13.39197424 0 16 C-0.03786901 17.66623639 -0.04627845 19.33397597 0 21 C-2.84740905 18.15259095 -3.16876253 15.62231917 -3.25 11.75 C-3.21992927 7.15669556 -2.07575166 4.06501366 0 0 Z " fill="#837BEC" transform="translate(117,321)"/>
<path d="M0 0 C3.95969176 1.67229701 7.0161201 4.36304994 10.25 7.125 C10.80429687 7.59292969 11.35859375 8.06085938 11.9296875 8.54296875 C13.28947326 9.69175328 14.64515165 10.84539653 16 12 C15.34 12.66 14.68 13.32 14 14 C14 13.34 14 12.68 14 12 C13.0409375 11.8453125 13.0409375 11.8453125 12.0625 11.6875 C11.0415625 11.3471875 11.0415625 11.3471875 10 11 C9.67 10.01 9.34 9.02 9 8 C7.68 8.33 6.36 8.66 5 9 C3.19933758 6.0534615 1.49836105 3.11198065 0 0 Z " fill="#8880EC" transform="translate(387,171)"/>
<path d="M0 0 C1.2065625 0.0309375 1.2065625 0.0309375 2.4375 0.0625 C2.1075 3.0325 1.7775 6.0025 1.4375 9.0625 C0.4475 9.3925 -0.5425 9.7225 -1.5625 10.0625 C-2.2225 9.7325 -2.8825 9.4025 -3.5625 9.0625 C-3.66015625 2.91015625 -3.66015625 2.91015625 -3.5625 1.0625 C-2.5625 0.0625 -2.5625 0.0625 0 0 Z " fill="#625AFB" transform="translate(260.5625,332.9375)"/>
<path d="M0 0 C0 0.66 0 1.32 0 2 C-2.31 2 -4.62 2 -7 2 C-7.66 3.32 -8.32 4.64 -9 6 C-9.99 6 -10.98 6 -12 6 C-12.33 6.99 -12.66 7.98 -13 9 C-13.99 8.34 -14.98 7.68 -16 7 C-14.87720538 6.01830524 -13.75168527 5.03972702 -12.625 4.0625 C-11.68527344 3.24458984 -11.68527344 3.24458984 -10.7265625 2.41015625 C-7.22422589 -0.45034945 -4.42923976 -0.08202296 0 0 Z " fill="#8A81ED" transform="translate(130,89)"/>
<path d="M0 0 C1.29636617 3.88909851 1.02498508 7.33819397 0.9375 11.40625 C1.01265761 14.52529066 1.41899897 16.37251889 3.5625 18.6875 C4.2740625 19.3371875 4.2740625 19.3371875 5 20 C4.01 20 3.02 20 2 20 C-1.53181325 16.06066984 -2.15305099 12.61174154 -2.1875 7.4375 C-2.20167969 6.46683594 -2.21585937 5.49617188 -2.23046875 4.49609375 C-2 2 -2 2 0 0 Z " fill="#8A82E7" transform="translate(89,290)"/>
<path d="M0 0 C2.31 0 4.62 0 7 0 C7 0.66 7 1.32 7 2 C7.66 2 8.32 2 9 2 C9.66 4.31 10.32 6.62 11 9 C11.66 9 12.32 9 13 9 C12.67 9.66 12.34 10.32 12 11 C10.18401175 9.54601271 8.37230481 8.08667675 6.5625 6.625 C5.04849609 5.40683594 5.04849609 5.40683594 3.50390625 4.1640625 C1 2 1 2 0 0 Z " fill="#8E86EB" transform="translate(366,233)"/>
<path d="M0 0 C2.9375 0.375 2.9375 0.375 6 1 C6.33 1.66 6.66 2.32 7 3 C7.99 2.67 8.98 2.34 10 2 C10.66 2.66 11.32 3.32 12 4 C11.625 7.125 11.625 7.125 11 10 C9.72390677 9.09066991 8.45434447 8.17217147 7.1875 7.25 C6.47980469 6.73953125 5.77210938 6.2290625 5.04296875 5.703125 C2.97022309 3.97517642 1.52624146 2.21473524 0 0 Z " fill="#837BF1" transform="translate(347,216)"/>
<path d="M0 0 C-0.33 0.66 -0.66 1.32 -1 2 C-4.52090554 3.17363518 -7.67139062 3.37033138 -11.375 3.625 C-13.33566406 3.76808594 -13.33566406 3.76808594 -15.3359375 3.9140625 C-18.4753294 3.98769429 -20.9804921 3.78110822 -24 3 C-24 2.67 -24 2.34 -24 2 C-21.12543208 1.66252452 -18.25043941 1.32989537 -15.375 1 C-14.16263672 0.85691406 -14.16263672 0.85691406 -12.92578125 0.7109375 C-8.59026261 0.21746383 -4.37262689 -0.11320717 0 0 Z " fill="#938DF0" transform="translate(267,130)"/>
<path d="M0 0 C0.66 0.33 1.32 0.66 2 1 C2 1.33 2 1.66 2 2 C-4.27 2 -10.54 2 -17 2 C-11.6151374 -1.5899084 -6.06401601 -2.02133867 0 0 Z " fill="#8D86EC" transform="translate(147,243)"/>
<path d="M0 0 C1.66113688 4.98341064 -0.9730395 9.33466797 -3 14 C-4.21703969 16.15543056 -5.50298439 18.0218008 -7 20 C-7.33 18.68 -7.66 17.36 -8 16 C-7.34 16 -6.68 16 -6 16 C-6 15.01 -6 14.02 -6 13 C-5.34 13 -4.68 13 -4 13 C-3.7834375 11.1128125 -3.7834375 11.1128125 -3.5625 9.1875 C-3.26251314 6.57332877 -2.84186703 4.52560108 -2 2 C-1.34 2 -0.68 2 0 2 C0 1.34 0 0.68 0 0 Z " fill="#8C86EA" transform="translate(383,317)"/>
<path d="M0 0 C1.175625 0.01353516 1.175625 0.01353516 2.375 0.02734375 C4.29180055 0.05071937 6.20844191 0.08658347 8.125 0.125 C8.125 0.455 8.125 0.785 8.125 1.125 C0.535 2.115 -7.055 3.105 -14.875 4.125 C-14.875 3.465 -14.875 2.805 -14.875 2.125 C-9.76263219 0.05065268 -5.41169107 -0.11924065 0 0 Z " fill="#8B85ED" transform="translate(272.875,174.875)"/>
<path d="M0 0 C1 3 1 3 0.0625 5.5 C-1.41076115 10.35309556 -1.16122366 14.96623908 -1 20 C-3.42772577 17.57227423 -3.68077662 15.6564994 -4.04296875 12.3046875 C-3.96956811 8.36774421 -2.88440623 2.88440623 0 0 Z " fill="#938DEC" transform="translate(145,350)"/>
<path d="M0 0 C1.66666667 0 3.33333333 0 5 0 C4.52797514 4.24822374 2.03344482 6.19989709 -1 9 C-2 8 -2 8 -2.1875 5.625 C-2 3 -2 3 0 0 Z " fill="#7267F3" transform="translate(212,321)"/>
<path d="M0 0 C0.42410156 0.38671875 0.84820312 0.7734375 1.28515625 1.171875 C5.30304806 4.7394097 9.25403771 7.48173429 14 10 C14 10.66 14 11.32 14 12 C11.5625 11.625 11.5625 11.625 9 11 C8.67 10.34 8.34 9.68 8 9 C5.47266765 8.34444881 5.47266765 8.34444881 3 8 C2.67 6.35 2.34 4.7 2 3 C1.34 3 0.68 3 0 3 C0 2.01 0 1.02 0 0 Z " fill="#8A83ED" transform="translate(153,108)"/>
<path d="M0 0 C4.78775956 3.53613714 9.46451416 7.14483704 14 11 C13.34 11.66 12.68 12.32 12 13 C10 11 10 11 9 9 C8.01 9 7.02 9 6 9 C6 8.34 6 7.68 6 7 C5.38125 6.773125 4.7625 6.54625 4.125 6.3125 C1.38589791 4.62070165 0.94975528 3.00755839 0 0 Z " fill="#938CEB" transform="translate(359,147)"/>
<path d="M0 0 C1.98 0.99 3.96 1.98 6 3 C3.3401439 6.44216672 0.09711714 6.99504674 -4 8 C-2.68 5.36 -1.36 2.72 0 0 Z " fill="#7F77F3" transform="translate(396,297)"/>
<path d="M0 0 C0.66 0.33 1.32 0.66 2 1 C0.72232235 5.99455809 -1.12911784 8.61297811 -5 12 C-5.99 12.495 -5.99 12.495 -7 13 C-7.33 12.01 -7.66 11.02 -8 10 C-7.01 9.67 -6.02 9.34 -5 9 C-3.93283296 7.20067421 -3.93283296 7.20067421 -3 5 C-2.01120795 3.32665961 -1.01351664 1.65848177 0 0 Z " fill="#8982F0" transform="translate(402,276)"/>
<path d="M0 0 C4.30764815 1.56641751 8.06171464 3.68336156 12 6 C10.3125 7.1875 10.3125 7.1875 8 8 C4.82687241 6.52952624 2.23341387 4.70360627 0 2 C0 1.34 0 0.68 0 0 Z " fill="#837CF0" transform="translate(83,215)"/>
<path d="M0 0 C1.32 0 2.64 0 4 0 C2.23570801 4.97209562 -0.3939166 9.43438061 -3 14 C-3.93423645 10.98968256 -4.04449911 10.13349732 -3 7 C-2.34 7 -1.68 7 -1 7 C-0.67 4.69 -0.34 2.38 0 0 Z " fill="#8782EB" transform="translate(134,185)"/>
<path d="M0 0 C0.33 0 0.66 0 1 0 C1.87184104 5.66696677 -0.42569953 8.75356018 -3.4921875 13.2421875 C-3.98976563 13.82226562 -4.48734375 14.40234375 -5 15 C-5.66 15 -6.32 15 -7 15 C-5.45454854 9.52067211 -2.84456788 4.88570819 0 0 Z " fill="#8881ED" transform="translate(126,174)"/>
<path d="M0 0 C0.66 0.99 1.32 1.98 2 3 C1.34 3 0.68 3 0 3 C-0.061875 3.886875 -0.12375 4.77375 -0.1875 5.6875 C-1.18171055 9.74081992 -2.90101124 11.29831749 -6 14 C-6 10.27792613 -4.82035432 8.53604411 -3 5.3125 C-2.443125 4.31863281 -1.88625 3.32476562 -1.3125 2.30078125 C-0.879375 1.54152344 -0.44625 0.78226563 0 0 Z " fill="#8881EE" transform="translate(141,147)"/>
<path d="M0 0 C4.63720719 3.27530896 8.68542782 6.30435607 12 11 C11.01 11.495 11.01 11.495 10 12 C10 11.34 10 10.68 10 10 C8.8553125 10.1546875 8.8553125 10.1546875 7.6875 10.3125 C6.3571875 10.1578125 6.3571875 10.1578125 5 10 C3.18116991 7.6167054 2 6.04181663 2 3 C1.34 3 0.68 3 0 3 C0 2.01 0 1.02 0 0 Z " fill="#8C83ED" transform="translate(381,100)"/>
<path d="M0 0 C0 2.62113708 -0.31292445 4.50935112 -1 7 C-1.99 7 -2.98 7 -4 7 C-4.2475 7.804375 -4.495 8.60875 -4.75 9.4375 C-6 12 -6 12 -8.125 12.8125 C-8.74375 12.874375 -9.3625 12.93625 -10 13 C-8.48446596 9.52224821 -6.4226544 7.0442016 -3.875 4.25 C-3.15054688 3.45078125 -2.42609375 2.6515625 -1.6796875 1.828125 C-0.84824219 0.92320312 -0.84824219 0.92320312 0 0 Z " fill="#958DEC" transform="translate(200,348)"/>
<path d="M0 0 C-0.33 0.66 -0.66 1.32 -1 2 C-3.28515625 2.4140625 -3.28515625 2.4140625 -6.0625 2.625 C-7.44115234 2.73714844 -7.44115234 2.73714844 -8.84765625 2.8515625 C-9.55792969 2.90054688 -10.26820313 2.94953125 -11 3 C-11 4.98 -11 6.96 -11 9 C-11.33 9 -11.66 9 -12 9 C-12 6.69 -12 4.38 -12 2 C-7.52828892 -0.66173278 -5.06604612 -1.3268216 0 0 Z " fill="#8F89E8" transform="translate(334,253)"/>
<path d="M0 0 C-1.80412643 3.26460973 -2.83394693 4.88929795 -6 7 C-6.12375 6.195625 -6.2475 5.39125 -6.375 4.5625 C-6.684375 3.2940625 -6.684375 3.2940625 -7 2 C-7.66 1.67 -8.32 1.34 -9 1 C-5.64919071 -1.10976881 -3.77897651 -1.0497157 0 0 Z " fill="#7D76F2" transform="translate(442,172)"/>
<path d="M0 0 C6.41991126 0.57065878 12.01589463 2.67344909 18 5 C18 5.33 18 5.66 18 6 C15.69 6 13.38 6 11 6 C11 5.34 11 4.68 11 4 C10.113125 3.87625 9.22625 3.7525 8.3125 3.625 C5.29612498 3.05587264 2.79673946 2.23385564 0 1 C0 0.67 0 0.34 0 0 Z " fill="#8B83EB" transform="translate(278,113)"/>
<path d="M0 0 C0.66 0 1.32 0 2 0 C1 3 1 3 -0.78515625 3.984375 C-6.36132862 5.85904015 -10.22318388 6.15536322 -16 5 C-16 4.67 -16 4.34 -16 4 C-12.37 4 -8.74 4 -5 4 C-5 3.34 -5 2.68 -5 2 C-3.35 2 -1.7 2 0 2 C0 1.34 0 0.68 0 0 Z " fill="#9A94EC" transform="translate(169,375)"/>
<path d="M0 0 C2.31 0.33 4.62 0.66 7 1 C6.67 2.98 6.34 4.96 6 7 C3.00675737 5.9024777 2.15389099 5.32317108 0.75 2.375 C0.5025 1.59125 0.255 0.8075 0 0 Z " fill="#7D76F0" transform="translate(144,370)"/>
<path d="M0 0 C4.69159716 3.38772897 9.0299782 6.78185183 13 11 C8.62558844 10.51395427 6.88870344 9.26143936 4 6 C3.2575 5.29875 2.515 4.5975 1.75 3.875 C0 2 0 2 0 0 Z " fill="#958EEE" transform="translate(326,315)"/>
<path d="M0 0 C-4.71645896 3.65525569 -7.99989099 4.79999637 -14 5 C-14.66 4.34 -15.32 3.68 -16 3 C-13.36 3 -10.72 3 -8 3 C-8 2.34 -8 1.68 -8 1 C-4.93251126 -0.86240388 -3.40254489 -1.2151946 0 0 Z " fill="#837CE9" transform="translate(210,392)"/>
<path d="M0 0 C1.65 0.33 3.3 0.66 5 1 C1.375 6.75 1.375 6.75 -2 9 C-2.20140476 5.37471432 -1.85776765 3.13498292 0 0 Z " fill="#837AF0" transform="translate(213,382)"/>
<path d="M0 0 C1.98 0 3.96 0 6 0 C5.67 0.763125 5.34 1.52625 5 2.3125 C3.82563314 4.99069135 3.82563314 4.99069135 4 8 C3.01 7.67 2.02 7.34 1 7 C1 5.68 1 4.36 1 3 C0.34 2.67 -0.32 2.34 -1 2 C-0.67 1.34 -0.34 0.68 0 0 Z " fill="#7771F0" transform="translate(228,364)"/>
<path d="M0 0 C2.4375 0.6875 2.4375 0.6875 5 2 C5.8125 4.625 5.8125 4.625 6 7 C5.01 6.67 4.02 6.34 3 6 C3 6.66 3 7.32 3 8 C1.68 7.67 0.36 7.34 -1 7 C-0.67 4.69 -0.34 2.38 0 0 Z " fill="#6259F6" transform="translate(298,295)"/>
<path d="M0 0 C2.61437258 3.92155886 2.21703011 7.44236768 2 12 C1.67 12.99 1.34 13.98 1 15 C0.34 15 -0.32 15 -1 15 C-1.02693575 12.87506859 -1.04636628 10.75004088 -1.0625 8.625 C-1.07410156 7.44164062 -1.08570313 6.25828125 -1.09765625 5.0390625 C-1 2 -1 2 0 0 Z " fill="#928CE9" transform="translate(186,281)"/>
<path d="M0 0 C0.33 0 0.66 0 1 0 C1.05454409 2.35448675 1.0939279 4.70767875 1.125 7.0625 C1.14820313 8.37347656 1.17140625 9.68445313 1.1953125 11.03515625 C0.99417522 15.11824299 0.27165462 18.14999053 -1 22 C-2.125 20.3125 -2.125 20.3125 -3 18 C-2.7009375 17.2678125 -2.401875 16.535625 -2.09375 15.78125 C-0.8070245 12.50929087 -0.58726653 9.68989775 -0.375 6.1875 C-0.30023438 5.02605469 -0.22546875 3.86460937 -0.1484375 2.66796875 C-0.09945313 1.78753906 -0.05046875 0.90710938 0 0 Z " fill="#8F89EC" transform="translate(417,262)"/>
<path d="M0 0 C0.33 0.99 0.66 1.98 1 3 C-0.86759004 6.51968892 -2.1486353 8.57431765 -5.75 10.375 C-6.4925 10.58125 -7.235 10.7875 -8 11 C-5.71461395 6.91036181 -3.04293074 3.53637896 0 0 Z " fill="#8D85EB" transform="translate(102,270)"/>
<path d="M0 0 C0.66 0 1.32 0 2 0 C2.19622241 4.21878192 1.80230168 7.17010894 0 11 C0.66 11.33 1.32 11.66 2 12 C1.01 12.33 0.02 12.66 -1 13 C-1.2236337 11.58566794 -1.42826476 10.16832382 -1.625 8.75 C-1.74101563 7.96109375 -1.85703125 7.1721875 -1.9765625 6.359375 C-2.00319395 3.67847541 -1.36592084 2.27305911 0 0 Z " fill="#786EEF" transform="translate(69,196)"/>
<path d="M0 0 C2.8125 -0.25 2.8125 -0.25 6 0 C7.9375 1.75 7.9375 1.75 9 4 C8.56640625 6.140625 8.56640625 6.140625 8 8 C6.66372225 6.85760183 5.33104612 5.71098945 4 4.5625 C3.2575 3.92441406 2.515 3.28632813 1.75 2.62890625 C1.1725 2.09136719 0.595 1.55382812 0 1 C0 0.67 0 0.34 0 0 Z " fill="#857EEE" transform="translate(311,185)"/>
<path d="M0 0 C0.93619813 3.15506142 1.1057123 5.96586502 1.0625 9.25 C1.05347656 10.14203125 1.04445312 11.0340625 1.03515625 11.953125 C1.02355469 12.62859375 1.01195312 13.3040625 1 14 C1.66 14.33 2.32 14.66 3 15 C2.01 15 1.02 15 0 15 C-2.33486745 11.35176961 -2.30399283 8.25589957 -2 4 C-1 1.5625 -1 1.5625 0 0 Z " fill="#8B84E8" transform="translate(198,162)"/>
<path d="M0 0 C2.97 1.98 2.97 1.98 6 4 C5.67 4.66 5.34 5.32 5 6 C2 7 2 7 -1 7 C-1.33 5.35 -1.66 3.7 -2 2 C-1.34 2 -0.68 2 0 2 C0 1.34 0 0.68 0 0 Z " fill="#7870F3" transform="translate(261,391)"/>
<path d="M0 0 C0.66 0.33 1.32 0.66 2 1 C1.56826373 6.09448798 1.24599784 9.84512277 -2 14 C-2.66 14 -3.32 14 -4 14 C-3.69255859 13.11248047 -3.69255859 13.11248047 -3.37890625 12.20703125 C-2.0002429 8.16339184 -0.68249153 4.23144751 0 0 Z " fill="#928BEE" transform="translate(370,310)"/>
<path d="M0 0 C0.33 0.66 0.66 1.32 1 2 C0.67 2.66 0.34 3.32 0 4 C0.66 4 1.32 4 2 4 C2 4.66 2 5.32 2 6 C-0.31 6.33 -2.62 6.66 -5 7 C-5 7.66 -5 8.32 -5 9 C-5.66 9 -6.32 9 -7 9 C-5.44499019 5.18315774 -2.96404505 2.80804268 0 0 Z " fill="#8B83EE" transform="translate(171,320)"/>
<path d="M0 0 C0.66 0.33 1.32 0.66 2 1 C-0.47739602 5.83092224 -0.47739602 5.83092224 -3.125 6.6875 C-3.74375 6.790625 -4.3625 6.89375 -5 7 C-5.33 7.66 -5.66 8.32 -6 9 C-6.66 9 -7.32 9 -8 9 C-6.4169423 4.7257442 -3.49431596 2.73468206 0 0 Z " fill="#948DEC" transform="translate(189,301)"/>
<path d="M0 0 C0.33 0 0.66 0 1 0 C1 1.65 1 3.3 1 5 C2.093125 4.34 3.18625 3.68 4.3125 3 C6.93707538 1.41535071 7.8256378 1 11 1 C9.70519111 3.42776667 8.64161481 4.76967674 6.01953125 5.7109375 C4.0261274 6.19782198 2.01341375 6.60391861 0 7 C0 4.69 0 2.38 0 0 Z " fill="#9792EF" transform="translate(119,245)"/>
<path d="M0 0 C0.97744926 3.04095325 1.16271218 4.99632687 0 8 C-1.4375 9.75 -1.4375 9.75 -3 11 C-3.66 11 -4.32 11 -5 11 C-3.77472971 6.94718288 -2.30119506 3.55639236 0 0 Z " fill="#857FEC" transform="translate(147,136)"/>
<path d="M0 0 C0.66 0 1.32 0 2 0 C0.43358249 4.30764815 -1.68336156 8.06171464 -4 12 C-4.66 11.67 -5.32 11.34 -6 11 C-5.09456151 8.28368454 -4.07525194 5.65228812 -3 3 C-2.01 3 -1.02 3 0 3 C0 2.01 0 1.02 0 0 Z " fill="#8D85ED" transform="translate(105,134)"/>
<path d="M0 0 C0.144375 0.61875 0.28875 1.2375 0.4375 1.875 C0.93152225 4.03258322 0.93152225 4.03258322 2 6 C1.34 6 0.68 6 0 6 C-0.66 7.65 -1.32 9.3 -2 11 C-2.99 10.67 -3.98 10.34 -5 10 C-3.66511872 6.40608886 -2.03977277 3.24509304 0 0 Z " fill="#847CF1" transform="translate(92,129)"/>
<path d="M0 0 C2.31 0.33 4.62 0.66 7 1 C7.33 1.99 7.66 2.98 8 4 C9.49985609 5.66710346 9.49985609 5.66710346 11 7 C7.41584854 7 6.58796261 6.21108216 3.8125 4.0625 C3.09707031 3.51722656 2.38164062 2.97195313 1.64453125 2.41015625 C1.10183594 1.94480469 0.55914062 1.47945313 0 1 C0 0.67 0 0.34 0 0 Z " fill="#8983EB" transform="translate(290,370)"/>
<path d="M0 0 C0.66 0 1.32 0 2 0 C2.33 2.97 2.66 5.94 3 9 C3.99 9.33 4.98 9.66 6 10 C5.34 10.66 4.68 11.32 4 12 C2 10.5 2 10.5 0 8 C-0.35800135 5.24128373 -0.18660165 2.79902476 0 0 Z " fill="#7973E8" transform="translate(289,297)"/>
<path d="M0 0 C1.7015625 0.495 1.7015625 0.495 3.4375 1 C6.54376639 2.04504273 6.54376639 2.04504273 8 2 C8 3.98 8 5.96 8 8 C6.84772177 7.23883449 5.7033614 6.46567307 4.5625 5.6875 C3.92441406 5.25824219 3.28632813 4.82898438 2.62890625 4.38671875 C1 3 1 3 0 0 Z " fill="#8880EE" transform="translate(126,103)"/>
<path d="M0 0 C4.78504172 2.48454089 7.86077669 4.47951843 11 9 C10.01 9 9.02 9 8 9 C7.67 8.01 7.34 7.02 7 6 C6.34 5.835 5.68 5.67 5 5.5 C4.34 5.335 3.68 5.17 3 5 C2.67 4.01 2.34 3.02 2 2 C1.34 2 0.68 2 0 2 C0 1.34 0 0.68 0 0 Z " fill="#918AED" transform="translate(132,91)"/>
<path d="M0 0 C4.455 0.99 4.455 0.99 9 2 C9.33 3.32 9.66 4.64 10 6 C10.33 6.66 10.66 7.32 11 8 C6.99698968 6.23867546 3.3971023 3.73867517 0 1 C0 0.67 0 0.34 0 0 Z " fill="#938AEE" transform="translate(252,403)"/>
<path d="M0 0 C1.65 0 3.3 0 5 0 C5 0.66 5 1.32 5 2 C5.66 2 6.32 2 7 2 C7 3.32 7 4.64 7 6 C4 6 4 6 1.8125 4.125 C0 2 0 2 0 0 Z " fill="#8179F2" transform="translate(117,342)"/>
<path d="M0 0 C0.99 0.66 1.98 1.32 3 2 C-0.13498292 3.85776765 -2.37471432 4.20140476 -6 4 C-6 4.66 -6 5.32 -6 6 C-6.66 6 -7.32 6 -8 6 C-7.375 4.125 -7.375 4.125 -6 2 C-3.0625 0.625 -3.0625 0.625 0 0 Z " fill="#8079ED" transform="translate(162,273)"/>
<path d="M0 0 C3.94139078 1.66751148 6.7892812 4.22710649 10 7 C9.34 7.66 8.68 8.32 8 9 C6.66079162 7.88200014 5.32877444 6.75538103 4 5.625 C2.88625 4.68527344 2.88625 4.68527344 1.75 3.7265625 C1.1725 3.15679687 0.595 2.58703125 0 2 C0 1.34 0 0.68 0 0 Z " fill="#8D85ED" transform="translate(404,248)"/>
<path d="M0 0 C0.66 0 1.32 0 2 0 C1.35550393 3.01217112 0.34977818 5.51655836 -1.0625 8.25 C-1.42472656 8.95640625 -1.78695312 9.6628125 -2.16015625 10.390625 C-2.43730469 10.92171875 -2.71445313 11.4528125 -3 12 C-3.33 12 -3.66 12 -4 12 C-4 10.02 -4 8.04 -4 6 C-3.34 6 -2.68 6 -2 6 C-2 5.01 -2 4.02 -2 3 C-1.34 3 -0.68 3 0 3 C0 2.01 0 1.02 0 0 Z " fill="#8A82EB" transform="translate(95,150)"/>
<path d="M0 0 C-4.46726453 3.31442207 -8.62007164 3.66009167 -14 4 C-9.89239426 0.52433361 -5.34448487 -2.0555711 0 0 Z " fill="#948EED" transform="translate(242,134)"/>
<path d="M0 0 C2.475 0.495 2.475 0.495 5 1 C5.25 8.625 5.25 8.625 3 12 C2.34 12 1.68 12 1 12 C1.09539062 11.38511719 1.19078125 10.77023437 1.2890625 10.13671875 C1.39992188 9.32847656 1.51078125 8.52023437 1.625 7.6875 C1.74101562 6.88699219 1.85703125 6.08648437 1.9765625 5.26171875 C2.21533407 2.71276785 2.21533407 2.71276785 0 0 Z " fill="#918DEC" transform="translate(306,383)"/>
<path d="M0 0 C1.32 0.66 2.64 1.32 4 2 C2.02 3.98 0.04 5.96 -2 8 C-2.66 7.67 -3.32 7.34 -4 7 C-3.67 6.34 -3.34 5.68 -3 5 C-2.34 5 -1.68 5 -1 5 C-1.33 4.01 -1.66 3.02 -2 2 C-1.34 1.34 -0.68 0.68 0 0 Z " fill="#8C85F2" transform="translate(406,292)"/>
<path d="M0 0 C2.31 0 4.62 0 7 0 C6.34 1.32 5.68 2.64 5 4 C3.35 3.67 1.7 3.34 0 3 C0 2.01 0 1.02 0 0 Z M-2 3 C-1.34 3 -0.68 3 0 3 C-0.33 3.99 -0.66 4.98 -1 6 C-1.33 5.01 -1.66 4.02 -2 3 Z " fill="#6058FC" transform="translate(370,294)"/>
<path d="M0 0 C1.98 0 3.96 0 6 0 C6.28875 0.804375 6.5775 1.60875 6.875 2.4375 C7.73262568 5.1326468 7.73262568 5.1326468 10 6 C9.67 6.66 9.34 7.32 9 8 C7.49712782 6.85793642 5.99776716 5.71125043 4.5 4.5625 C3.6646875 3.92441406 2.829375 3.28632813 1.96875 2.62890625 C1.3190625 2.09136719 0.669375 1.55382812 0 1 C0 0.67 0 0.34 0 0 Z " fill="#908AF1" transform="translate(356,292)"/>
<path d="M0 0 C1.45947705 0.06006078 2.91779272 0.1488689 4.375 0.25 C5.59316406 0.31960937 5.59316406 0.31960937 6.8359375 0.390625 C9 1 9 1 10.34375 2.90625 C11 5 11 5 10.125 7.25 C9.75375 7.8275 9.3825 8.405 9 9 C8.67 7.02 8.34 5.04 8 3 C5.36 2.34 2.72 1.68 0 1 C0 0.67 0 0.34 0 0 Z " fill="#9690EF" transform="translate(95,238)"/>
<path d="M0 0 C0.99 0.33 1.98 0.66 3 1 C1.73058503 4.91402949 0.48832306 6.79072873 -3 9 C-3 7.68 -3 6.36 -3 5 C-2.34 5 -1.68 5 -1 5 C-0.67 3.35 -0.34 1.7 0 0 Z " fill="#817AEC" transform="translate(344,103)"/>
<path d="M0 0 C0 3.15081975 -0.27898465 4.41847698 -2 7 C-4.125 7.75 -4.125 7.75 -6 8 C-6 8.66 -6 9.32 -6 10 C-6.66 9.67 -7.32 9.34 -8 9 C-6.85459775 7.68712379 -5.70866567 6.37470979 -4.5625 5.0625 C-3.92441406 4.33160156 -3.28632813 3.60070312 -2.62890625 2.84765625 C-1.77458541 1.87860647 -0.91348825 0.91348825 0 0 Z " fill="#9187ED" transform="translate(180,310)"/>
<path d="M0 0 C3.81684226 1.55500981 6.19195732 4.03595495 9 7 C4.71193127 6.52354792 2.73352513 5.34097516 0 2 C0 1.34 0 0.68 0 0 Z " fill="#918AEC" transform="translate(387,171)"/>
<path d="M0 0 C0.66 0.99 1.32 1.98 2 3 C1.01 3.33 0.02 3.66 -1 4 C-1.66 3.67 -2.32 3.34 -3 3 C-3 3.66 -3 4.32 -3 5 C-4.32 5.33 -5.64 5.66 -7 6 C-4.53846154 1.2 -4.53846154 1.2 -1.8125 0.1875 C-0.9153125 0.0946875 -0.9153125 0.0946875 0 0 Z " fill="#7E75F0" transform="translate(426,170)"/>
<path d="M0 0 C1 3 1 3 0 6 C-3 8 -3 8 -5.1875 7.625 C-5.785625 7.41875 -6.38375 7.2125 -7 7 C-6.21625 6.401875 -5.4325 5.80375 -4.625 5.1875 C-1.85425677 3.08914751 -1.85425677 3.08914751 0 0 Z " fill="#8680EB" transform="translate(306,395)"/>
<path d="M0 0 C1.65 0 3.3 0 5 0 C3.75023244 3.65316671 3.32901247 4.78065836 0 7 C0 4.69 0 2.38 0 0 Z " fill="#847CEC" transform="translate(177,363)"/>
<path d="M0 0 C3.98381075 2.16264012 6.88983545 4.71211176 10 8 C9.01 8.495 9.01 8.495 8 9 C7.34 8.34 6.68 7.68 6 7 C5.29875 6.505 4.5975 6.01 3.875 5.5 C3.25625 5.005 2.6375 4.51 2 4 C2 3.34 2 2.68 2 2 C1.34 2 0.68 2 0 2 C0 1.34 0 0.68 0 0 Z " fill="#9890F0" transform="translate(283,345)"/>
<path d="M0 0 C-1.33333333 2.66666667 -2.66666667 5.33333333 -4 8 C-4.66 7.67 -5.32 7.34 -6 7 C-5.39816251 4.97954558 -4.72693904 2.97888961 -4 1 C-2 0 -2 0 0 0 Z " fill="#7B71F0" transform="translate(223,325)"/>
<path d="M0 0 C0.99 0.66 1.98 1.32 3 2 C1.63016497 5.16115776 1.0109362 5.9927092 -2 8 C-2.20086443 4.28400809 -2.1519437 3.22791555 0 0 Z " fill="#756CF0" transform="translate(140,281)"/>
<path d="M0 0 C0.66 0 1.32 0 2 0 C1.32902328 4.19360449 -0.8558394 7.40334352 -3 11 C-3.33 9.68 -3.66 8.36 -4 7 C-3.34 7 -2.68 7 -2 7 C-1.855625 6.21625 -1.71125 5.4325 -1.5625 4.625 C-1 2 -1 2 0 0 Z " fill="#8E89EA" transform="translate(127,200)"/>
<path d="M0 0 C1.98 0 3.96 0 6 0 C6 0.99 6 1.98 6 3 C7.43750191 4.68798827 7.43750191 4.68798827 9 6 C4.58763974 6 3.21615077 3.9302707 0 1 C0 0.67 0 0.34 0 0 Z " fill="#8D86F0" transform="translate(332,203)"/>
<path d="M0 0 C1.33332095 2.6666419 0.67102033 4.16680303 0 7 C-0.99 7 -1.98 7 -3 7 C-3.99 7.33 -4.98 7.66 -6 8 C-6 5 -6 5 -4.6875 3.61328125 C-3.125 2.40885417 -1.5625 1.20442708 0 0 Z " fill="#6159FA" transform="translate(79,176)"/>
<path d="M0 0 C3.375 0.25 3.375 0.25 7 1 C8.4375 3.0625 8.4375 3.0625 9 5 C8.01 5.495 8.01 5.495 7 6 C5.83054208 5.19152271 4.66449539 4.37810888 3.5 3.5625 C2.8503125 3.11003906 2.200625 2.65757812 1.53125 2.19140625 C1.0259375 1.79824219 0.520625 1.40507812 0 1 C0 0.67 0 0.34 0 0 Z " fill="#8A85EC" transform="translate(263,411)"/>
<path d="M0 0 C0.66 0 1.32 0 2 0 C2 1.65 2 3.3 2 5 C-0.31 5.33 -2.62 5.66 -5 6 C-3.38405168 3.95880212 -1.7143618 1.95927063 0 0 Z " fill="#8680E8" transform="translate(338,367)"/>
<path d="M0 0 C1.98 0 3.96 0 6 0 C4.35830472 2.02054804 2.69088222 4.02043058 1 6 C0.67 6 0.34 6 0 6 C0 4.02 0 2.04 0 0 Z " fill="#8982ED" transform="translate(157,323)"/>
<path d="M0 0 C2.2477975 2.05233685 3.0022242 3.00667261 4 6 C4.06740865 7.56118428 4.08514456 9.1250252 4.0625 10.6875 C4.05347656 11.49574219 4.04445312 12.30398438 4.03515625 13.13671875 C4.02355469 13.75160156 4.01195312 14.36648438 4 15 C3.67 15 3.34 15 3 15 C2 10 1 5 0 0 Z " fill="#A19CEF" transform="translate(215,305)"/>
<path d="M0 0 C0.95465783 2.16967689 1.14401212 3.56328793 0.3984375 5.82421875 C-0.35870385 7.5684743 -1.17609198 9.28627131 -2 11 C-2.66 11 -3.32 11 -4 11 C-3.52269162 9.5410574 -3.04308958 8.08286504 -2.5625 6.625 C-2.29566406 5.81289062 -2.02882812 5.00078125 -1.75390625 4.1640625 C-1 2 -1 2 0 0 Z " fill="#8D87EA" transform="translate(60,187)"/>
<path d="M0 0 C0.66 1.32 1.32 2.64 2 4 C0.68 4.33 -0.64 4.66 -2 5 C-2 5.66 -2 6.32 -2 7 C-3.32 6.67 -4.64 6.34 -6 6 C-4.02 4.02 -2.04 2.04 0 0 Z " fill="#948FEF" transform="translate(413,181)"/>
<path d="M0 0 C1.65 0 3.3 0 5 0 C5.33 1.32 5.66 2.64 6 4 C6.66 4 7.32 4 8 4 C7.67 4.99 7.34 5.98 7 7 C5.83040013 6.02433888 4.66438823 5.044375 3.5 4.0625 C2.8503125 3.51722656 2.200625 2.97195312 1.53125 2.41015625 C1.0259375 1.94480469 0.520625 1.47945312 0 1 C0 0.67 0 0.34 0 0 Z " fill="#928CED" transform="translate(394,130)"/>
<path d="M0 0 C2.64 0.66 5.28 1.32 8 2 C8.33 3.32 8.66 4.64 9 6 C4.75177626 5.52797514 2.80010291 3.03344482 0 0 Z " fill="#8881EB" transform="translate(359,101)"/>
<path d="M0 0 C0.33 0.99 0.66 1.98 1 3 C-1.15343189 6.23014784 -2.27059611 7.75686537 -6 9 C-4.47291037 5.56404834 -2.40072955 2.88087546 0 0 Z " fill="#9891EA" transform="translate(186,364)"/>
<path d="M0 0 C1.65 0.33 3.3 0.66 5 1 C3.71034824 2.37562854 2.37310707 3.70766393 1 5 C0.34 5 -0.32 5 -1 5 C-0.67 3.35 -0.34 1.7 0 0 Z " fill="#7B72F1" transform="translate(136,346)"/>
<path d="M0 0 C0.33 0.66 0.66 1.32 1 2 C0.22265625 3.9453125 0.22265625 3.9453125 -0.9375 6.125 C-1.31777344 6.84945313 -1.69804688 7.57390625 -2.08984375 8.3203125 C-2.39019531 8.87460937 -2.69054687 9.42890625 -3 10 C-3.66 9.67 -4.32 9.34 -5 9 C-3.7508258 5.54074837 -2.32472205 2.85306797 0 0 Z " fill="#8B84EC" transform="translate(123,312)"/>
<path d="M0 0 C1.32 0.33 2.64 0.66 4 1 C3.34 2.32 2.68 3.64 2 5 C1.01 5 0.02 5 -1 5 C-1 2 -1 2 0 0 Z " fill="#7F75EF" transform="translate(165,314)"/>
<path d="M0 0 C4.02992782 0.55312735 8.02022924 1.1558062 12 2 C12 2.33 12 2.66 12 3 C3.42857143 3.14285714 3.42857143 3.14285714 0 2 C0 1.34 0 0.68 0 0 Z " fill="#9B94EC" transform="translate(98,313)"/>
<path d="M0 0 C2.31 0 4.62 0 7 0 C7 0.66 7 1.32 7 2 C7.66 2 8.32 2 9 2 C8.67 2.99 8.34 3.98 8 5 C1.125 2.25 1.125 2.25 0 0 Z " fill="#7D74F1" transform="translate(366,233)"/>
<path d="M0 0 C1.98 0.99 1.98 0.99 4 2 C4 2.66 4 3.32 4 4 C5.32 4.33 6.64 4.66 8 5 C7.01 5.495 7.01 5.495 6 6 C3.875 5.0625 3.875 5.0625 2 4 C2 3.34 2 2.68 2 2 C1.34 2 0.68 2 0 2 C0 1.34 0 0.68 0 0 Z M8 2 C8.99 2.33 9.98 2.66 11 3 C10.34 3.66 9.68 4.32 9 5 C8.67 4.01 8.34 3.02 8 2 Z " fill="#7870F1" transform="translate(403,184)"/>
<path d="M0 0 C1.65 0.33 3.3 0.66 5 1 C4.67 2.32 4.34 3.64 4 5 C2.35 4.67 0.7 4.34 -1 4 C-0.67 2.68 -0.34 1.36 0 0 Z " fill="#746CF0" transform="translate(140,171)"/>
<path d="M0 0 C0.33 0.66 0.66 1.32 1 2 C1.99 2 2.98 2 4 2 C4 2.66 4 3.32 4 4 C2.02 4.33 0.04 4.66 -2 5 C-2 5.66 -2 6.32 -2 7 C-2.66 7 -3.32 7 -4 7 C-2.79618552 4.50638429 -1.54571278 2.31856917 0 0 Z " fill="#8A83EF" transform="translate(113,97)"/>
<path d="M0 0 C0.99 0 1.98 0 3 0 C1.90931332 3.77545388 1.0916909 6.47043472 -2 9 C-2 7.68 -2 6.36 -2 5 C-1.34 5 -0.68 5 0 5 C0 3.35 0 1.7 0 0 Z " fill="#8C88EB" transform="translate(319,396)"/>
<path d="M0 0 C2.475 0.99 2.475 0.99 5 2 C5 2.99 5 3.98 5 5 C3.35 4.67 1.7 4.34 0 4 C0 2.68 0 1.36 0 0 Z " fill="#857CEF" transform="translate(250,384)"/>
<path d="M0 0 C3.36591866 1.44253657 5.51047079 3.33264727 8 6 C4.06830895 6 2.83572772 4.60580385 0 2 C0 1.34 0 0.68 0 0 Z " fill="#9089EE" transform="translate(238,375)"/>
<path d="M0 0 C0.66 0.33 1.32 0.66 2 1 C0.29171079 3.10633718 -0.52148416 3.93801608 -3.26171875 4.29296875 C-4.06222656 4.25816406 -4.86273438 4.22335937 -5.6875 4.1875 C-6.49574219 4.16042969 -7.30398438 4.13335937 -8.13671875 4.10546875 C-8.75160156 4.07066406 -9.36648438 4.03585937 -10 4 C-10 3.67 -10 3.34 -10 3 C-7.69 3 -5.38 3 -3 3 C-3 2.34 -3 1.68 -3 1 C-2.01 0.67 -1.02 0.34 0 0 Z " fill="#7971EE" transform="translate(331,373)"/>
<path d="M0 0 C2.475 0.99 2.475 0.99 5 2 C4.34 3.32 3.68 4.64 3 6 C2.34 5.67 1.68 5.34 1 5 C1 4.34 1 3.68 1 3 C0.34 3 -0.32 3 -1 3 C-0.67 2.01 -0.34 1.02 0 0 Z " fill="#7A73F2" transform="translate(117,304)"/>
<path d="M0 0 C2.31 0 4.62 0 7 0 C6.34 1.32 5.68 2.64 5 4 C2.525 3.01 2.525 3.01 0 2 C0 1.34 0 0.68 0 0 Z " fill="#7874ED" transform="translate(80,229)"/>
<path d="M0 0 C0.33 0 0.66 0 1 0 C1.25 2.75 1.25 2.75 1 6 C-1 8.375 -1 8.375 -3 10 C-3.33 8.68 -3.66 7.36 -4 6 C-3.01 6 -2.02 6 -1 6 C-0.67 4.02 -0.34 2.04 0 0 Z " fill="#9890ED" transform="translate(448,159)"/>
<path d="M0 0 C3.53600465 1.91135386 5.78972846 3.62642766 8 7 C5 7 5 7 3.3125 5.625 C2 4 2 4 2 2 C1.34 2 0.68 2 0 2 C0 1.34 0 0.68 0 0 Z " fill="#928AEB" transform="translate(422,136)"/>
<path d="M0 0 C1.65 1.65 3.3 3.3 5 5 C2.92446352 5.5534764 1.15634036 6 -1 6 C-0.67 4.02 -0.34 2.04 0 0 Z " fill="#827BF1" transform="translate(403,119)"/>
<path d="M0 0 C2.31 0.33 4.62 0.66 7 1 C7 2.65 7 4.3 7 6 C5.83054208 5.19152271 4.66449539 4.37810888 3.5 3.5625 C2.8503125 3.11003906 2.200625 2.65757813 1.53125 2.19140625 C1.0259375 1.79824219 0.520625 1.40507813 0 1 C0 0.67 0 0.34 0 0 Z " fill="#8A82EE" transform="translate(382,120)"/>
<path d="M0 0 C0 3.10551666 -0.5393715 4.35261084 -2 7 C-2.66 6.67 -3.32 6.34 -4 6 C-3.67 4.35 -3.34 2.7 -3 1 C-2.01 0.67 -1.02 0.34 0 0 Z " fill="#5F57FD" transform="translate(368,93)"/>
<path d="M0 0 C2.31 0 4.62 0 7 0 C7.33 0.99 7.66 1.98 8 3 C5.36 2.67 2.72 2.34 0 2 C0 1.34 0 0.68 0 0 Z " fill="#867EEF" transform="translate(277,419)"/>
<path d="M0 0 C0.66 0 1.32 0 2 0 C2 0.66 2 1.32 2 2 C2.66 2 3.32 2 4 2 C3.34 3.32 2.68 4.64 2 6 C1.67 5.34 1.34 4.68 1 4 C0.34 4 -0.32 4 -1 4 C-0.67 2.68 -0.34 1.36 0 0 Z " fill="#7169F5" transform="translate(197,339)"/>
<path d="M0 0 C2.7972908 2.06756277 3.02692273 3.14440371 3.6875 6.6875 C3.790625 7.780625 3.89375 8.87375 4 10 C3.67 9.01 3.34 8.02 3 7 C2.34 7 1.68 7 1 7 C0.67 4.69 0.34 2.38 0 0 Z " fill="#9A96EE" transform="translate(244,331)"/>
<path d="M0 0 C2.64 1.65 5.28 3.3 8 5 C6.68 5.33 5.36 5.66 4 6 C1.75 4.1875 1.75 4.1875 0 2 C0 1.34 0 0.68 0 0 Z " fill="#8F88ED" transform="translate(343,329)"/>
<path d="M0 0 C0.33 0 0.66 0 1 0 C1 1.98 1 3.96 1 6 C-0.65 6 -2.3 6 -4 6 C-2.69593116 3.98079663 -1.36176581 1.98075027 0 0 Z " fill="#867CED" transform="translate(363,327)"/>
<path d="M0 0 C1.65 0 3.3 0 5 0 C4.34 1.32 3.68 2.64 3 4 C2.01 4 1.02 4 0 4 C0 2.68 0 1.36 0 0 Z " fill="#857EED" transform="translate(210,325)"/>
<path d="M0 0 C0.66 0 1.32 0 2 0 C1.50168276 3.68754757 0.89932357 5.60490662 -2 8 C-2.33 6.35 -2.66 4.7 -3 3 C-2.34 3 -1.68 3 -1 3 C-0.67 2.01 -0.34 1.02 0 0 Z " fill="#8982EE" transform="translate(119,214)"/>
<path d="M0 0 C3.875 1.75 3.875 1.75 5 4 C2.69 4.33 0.38 4.66 -2 5 C-1.34 3.35 -0.68 1.7 0 0 Z " fill="#847DF0" transform="translate(365,87)"/>
<path d="M0 0 C0.99 0 1.98 0 3 0 C1.70700306 2.88437779 0.34058637 4.87219421 -2 7 C-2 5.35 -2 3.7 -2 2 C-1.34 2 -0.68 2 0 2 C0 1.34 0 0.68 0 0 Z " fill="#7F77EF" transform="translate(237,357)"/>
<path d="M0 0 C2.97 0.495 2.97 0.495 6 1 C4.68 2.65 3.36 4.3 2 6 C1.34 4.02 0.68 2.04 0 0 Z " fill="#7D74F3" transform="translate(145,335)"/>
<path d="M0 0 C0.66 0.33 1.32 0.66 2 1 C0.70700306 3.88437779 -0.65941363 5.87219421 -3 8 C-3 6.02 -3 4.04 -3 2 C-2.01 2.33 -1.02 2.66 0 3 C0 2.01 0 1.02 0 0 Z " fill="#817AEB" transform="translate(179,300)"/>
<path d="M0 0 C3.14624993 -0.26218749 4.61837017 -0.24754367 7.3125 1.5 C8.1478125 2.2425 8.1478125 2.2425 9 3 C6.03 2.67 3.06 2.34 0 2 C0 1.34 0 0.68 0 0 Z " fill="#7872E8" transform="translate(90,235)"/>
<path d="M0 0 C0.66 0 1.32 0 2 0 C2.99 1.98 3.98 3.96 5 6 C2 6 2 6 -1 4 C-0.67 2.68 -0.34 1.36 0 0 Z " fill="#7F77ED" transform="translate(418,148)"/>
<path d="M0 0 C0.33 0.66 0.66 1.32 1 2 C0.67 2.99 0.34 3.98 0 5 C-3.5625 6.1875 -3.5625 6.1875 -7 7 C-4.66666667 4.66666667 -2.33333333 2.33333333 0 0 Z " fill="#9993EF" transform="translate(221,142)"/>
<path d="M0 0 C-0.33 0.66 -0.66 1.32 -1 2 C-3.9375 2.75 -3.9375 2.75 -7 3 C-7.66 2.34 -8.32 1.68 -9 1 C-5.8035914 -0.06546953 -3.34252724 -0.07427838 0 0 Z " fill="#837BE8" transform="translate(267,130)"/>
<path d="M0 0 C0 0.66 0 1.32 0 2 C0.99 2.33 1.98 2.66 3 3 C-0.3 3.33 -3.6 3.66 -7 4 C-2.25 0 -2.25 0 0 0 Z " fill="#8B86F3" transform="translate(208,125)"/>
<path d="M0 0 C3.26460973 1.80412643 4.88929795 2.83394693 7 6 C6.01 6.495 6.01 6.495 5 7 C3.5 5.625 3.5 5.625 2 4 C2 3.34 2 2.68 2 2 C1.34 2 0.68 2 0 2 C0 1.34 0 0.68 0 0 Z " fill="#928AF0" transform="translate(393,111)"/>
</svg>
